<?xml version="1.0" standalone="no"?>
<!DOCTYPE svg PUBLIC "-//W3C//DTD SVG 1.1//EN" "http://www.w3.org/Graphics/SVG/1.1/DTD/svg11.dtd" >
<svg xmlns="http://www.w3.org/2000/svg" xmlns:xlink="http://www.w3.org/1999/xlink" version="1.1">
<metadata>
Created by FontForge 20170731 at Fri Jun 15 09:05:27 2018
 By Aleksey,,,
 Copyright (c)2018 Talbot Type. All Rights Reserved
</metadata>
<defs>
<font id="Kessel105Text-BookOblique" horiz-adv-x="1228" >
  <font-face 
    font-family="Kessel 105 Text Book Oblique"
    font-weight="400"
    font-style="oblique"
    font-stretch="normal"
    units-per-em="2048"
    panose-1="2 11 5 3 3 6 0 9 0 3"
    ascent="1536"
    descent="-512"
    x-height="1024"
    cap-height="1485"
    bbox="-68 -543 2726 1831"
    underline-thickness="0"
    underline-position="0"
    unicode-range="U+0020-FB07"
  />
<missing-glyph horiz-adv-x="391" 
 />
    <glyph glyph-name=".notdef" horiz-adv-x="391" 
 />
    <glyph glyph-name="glyph1" horiz-adv-x="0" 
 />
    <glyph glyph-name="glyph2" horiz-adv-x="681" 
 />
    <glyph glyph-name="space" unicode=" " horiz-adv-x="552" 
 />
    <glyph glyph-name="exclam" unicode="!" horiz-adv-x="532" 
d="M344 322h-90l98 1163h140zM172 86q4 41 38 70.5t75 29.5t68.5 -29.5t23.5 -70.5t-38 -70.5t-75 -29.5t-68.5 29.5t-23.5 70.5z" />
    <glyph glyph-name="quotedbl" unicode="&#x22;" horiz-adv-x="526" 
d="M229 1139h-82v346h82v-346zM297 1485h82v-346h-82v346z" />
    <glyph glyph-name="numbersign" unicode="#" horiz-adv-x="1253" 
d="M143 868l13 111h381l161 508h119l-162 -508h248l162 508h119l-162 -508h281l-13 -111h-305l-80 -254h359l-13 -110h-383l-157 -504h-119l158 504h-248l-158 -504h-119l158 504h-279l13 110h303l80 254h-357zM618 868l-79 -254h247l80 254h-248z" />
    <glyph glyph-name="dollar" unicode="$" horiz-adv-x="1208" 
d="M516 -221l21 188q-260 18 -426 162l82 102q180 -145 421 -145q154 0 270.5 86t131.5 227q10 100 -30 165t-110.5 95.5t-158.5 51t-175 44t-158 60.5t-109.5 115t-26.5 192q16 154 144 264.5t306 131.5l17 145h131l-17 -143q211 -18 373 -131l-82 -101q-162 113 -368 113
q-143 0 -250 -79t-119 -200q-10 -90 31 -147t112.5 -85t159.5 -46.5t175 -44t156.5 -66.5t107.5 -125t26 -209q-18 -176 -155.5 -293.5t-327.5 -136.5l-21 -190h-131z" />
    <glyph glyph-name="percent" unicode="%" horiz-adv-x="1740" 
d="M217 1133q14 156 139 267t285 111q94 0 171 -40.5t122 -112.5q76 -102 199 -103q129 0 225 103l119 155l84 -67l-1147 -1481l-86 68l872 1122q-41 -10 -80 -10q-63 0 -133 35v-47q-16 -158 -141 -268.5t-285 -110.5t-260 110.5t-84 268.5zM907.5 348
q16.5 158 141.5 268.5t284.5 110.5t260 -110.5t83.5 -268.5q-14 -156 -139 -267.5t-284.5 -111.5t-261 110.5t-85 268.5zM336 1133q-12 -111 57.5 -189t180 -78t196.5 78t98 189q10 111 -59.5 188.5t-180 77.5t-196.5 -77.5t-96 -188.5zM1026 348q-10 -111 59.5 -188.5
t180 -77.5t196.5 78t97 188q12 111 -57.5 188.5t-180.5 77.5t-197 -77.5t-98 -188.5z" />
    <glyph glyph-name="ampersand" unicode="&#x26;" horiz-adv-x="1355" 
d="M1370 854h-53q-47 0 -84 -33t-41 -80l-53 -505q-6 -45 24.5 -79t77.5 -34h53l-12 -123h-68q-70 0 -128 48t-74 116q-170 -195 -406 -195q-211 0 -346 145.5t-113 354.5q14 150 106.5 271.5t231.5 183.5q-113 113 -98 254q14 139 127 237t254 98t233.5 -98t77.5 -237
q-14 -137 -126.5 -236.5t-254.5 -99.5q-156 0 -278.5 -109.5t-136.5 -263.5q-16 -154 82 -265.5t253 -111.5q154 0 276 111.5t138 269.5l29 268q8 98 84 167t172 69h67zM711 969q86 0 154.5 61.5t78.5 147.5q10 88 -45 150.5t-143 62.5q-86 0 -156 -62.5t-78 -150.5
q-10 -84 46.5 -146.5t142.5 -62.5z" />
    <glyph glyph-name="quotesingle" unicode="'" horiz-adv-x="376" 
d="M229 1139h-82v346h82v-346z" />
    <glyph glyph-name="parenleft" unicode="(" horiz-adv-x="606" 
d="M242 508q51 510 323 987h123q-250 -393 -311 -987q-66 -594 104 -987h-123q-171 477 -116 987z" />
    <glyph glyph-name="parenright" unicode=")" horiz-adv-x="606" 
d="M471 508q-55 -512 -326 -987h-122q248 387 313 987q61 594 -107 987h123q170 -475 119 -987z" />
    <glyph glyph-name="asterisk" unicode="*" horiz-adv-x="817" 
d="M455 1280l-119 61l61 91l107 -78l10 141h102l-22 -141l125 78l41 -91l-129 -61l117 -66l-62 -90l-108 78l-7 -141h-102l18 141l-122 -78l-41 90z" />
    <glyph glyph-name="plus" unicode="+" horiz-adv-x="1269" 
d="M123 573h448v451h131v-451h445v-122h-445v-451h-131v451h-448v122z" />
    <glyph glyph-name="comma" unicode="," horiz-adv-x="499" 
d="M188 -162q76 0 84 76l9 78q-14 -6 -33 -6q-41 0 -68.5 29.5t-23.5 70.5t37.5 70.5t74.5 29.5t69 -29.5t23 -70.5l-18 -172q-14 -135 -160 -135h-22l6 59h22z" />
    <glyph glyph-name="hyphen" unicode="-" horiz-adv-x="919" 
d="M219 451l12 122h576l-12 -122h-576z" />
    <glyph glyph-name="period" unicode="." horiz-adv-x="499" 
d="M156 86q4 41 37.5 70.5t74.5 29.5t69 -29.5t23.5 -70.5t-38 -70.5t-74.5 -29.5t-68.5 29.5t-23.5 70.5z" />
    <glyph glyph-name="slash" unicode="/" horiz-adv-x="1013" 
d="M233 -31l-86 37l789 1512l84 -39z" />
    <glyph glyph-name="zero" unicode="0" horiz-adv-x="1249" 
d="M1235 1040l-64 -600q-20 -201 -180 -336t-368 -135q-211 0 -343.5 135.5t-111.5 335.5l63 600q20 203 181 338t372 135q209 0 340 -135t111 -338zM1036 440l64 600q16 154 -79 253.5t-249 99.5q-156 0 -272.5 -99.5t-132.5 -253.5l-64 -600q-14 -152 81 -251t251 -99
q154 0 270.5 99t130.5 251z" />
    <glyph glyph-name="one" unicode="1" horiz-adv-x="657" 
d="M233 1178l15 141l424 227l-162 -1546h-135l139 1327z" />
    <glyph glyph-name="two" unicode="2" horiz-adv-x="1202" 
d="M1018 653l-582 -530h629l-12 -123h-928l813 748q119 106 135 264q16 154 -82 267.5t-252 113.5q-152 0 -269.5 -115t-135.5 -274h-131q25 213 184.5 361t364.5 148q211 0 345 -147t111 -354q-22 -212 -190 -359z" />
    <glyph glyph-name="three" unicode="3" horiz-adv-x="1204" 
d="M328 842l579 520h-575l14 123h883l-570 -512l39 2q217 0 348.5 -143.5t108.5 -358.5q-23 -207 -187.5 -355.5t-375.5 -148.5q-209 0 -342 146.5t-111 353.5h131q-14 -154 84.5 -266.5t249.5 -112.5q154 0 277 113.5t139 269.5q16 160 -80 270.5t-256 110.5
q-154 0 -272 -113z" />
    <glyph glyph-name="four" unicode="4" horiz-adv-x="1200" 
d="M868 1145l-561 -682h490zM1044 1546l-114 -1083h239l-12 -123h-239l-35 -340h-135l34 340h-727z" />
    <glyph glyph-name="five" unicode="5" horiz-adv-x="1206" 
d="M401 723l-131 22l209 740h637l-14 -123h-524l-129 -461q125 72 249 72q221 0 351.5 -141.5t107.5 -360.5q-23 -213 -184.5 -357.5t-378.5 -144.5q-211 0 -344 145.5t-113 352.5h131q-14 -154 85.5 -265.5t252.5 -111.5q156 0 278 112.5t138 268.5q16 160 -80 270.5
t-256 110.5q-156 0 -285 -129z" />
    <glyph glyph-name="six" unicode="6" horiz-adv-x="1218" 
d="M698.5 852q-155.5 0 -278.5 -112.5t-137 -268.5q-16 -156 82 -268.5t253.5 -112.5t277.5 112.5t138 268.5q16 158 -82 269.5t-253.5 111.5zM711 973q211 0 346 -147.5t112 -354.5q-23 -209 -187.5 -355.5t-375.5 -146.5q-219 0 -350 144.5t-109 357.5q14 150 117 285
l565 729h156l-420 -535q83 23 146 23z" />
    <glyph glyph-name="seven" unicode="7" horiz-adv-x="1107" 
d="M207 1362l14 123h989l-768 -1485h-141l707 1362h-801z" />
    <glyph glyph-name="eight" unicode="8" horiz-adv-x="1187" 
d="M338 1155q14 150 136 254t277.5 104t255 -104t85.5 -254q-18 -174 -201 -287q123 -57 190.5 -169.5t53.5 -252.5q-20 -197 -180 -337t-365 -140q-203 0 -335 140.5t-112 336.5q14 139 107.5 252t228.5 170q-72 47 -110.5 123t-30.5 164zM279 446q-16 -150 78 -253
t245.5 -103t267 103.5t129.5 252.5q16 152 -77 253.5t-244 101.5q-154 0 -268.5 -101.5t-130.5 -253.5zM473 1155q-10 -98 53.5 -166.5t164 -68.5t178 67.5t88 167.5t-53 169t-164 69t-178.5 -69t-88 -169z" />
    <glyph glyph-name="nine" unicode="9" horiz-adv-x="1218" 
d="M673.5 633q155.5 0 278.5 111.5t140 269.5q16 156 -83.5 268.5t-255 112.5t-276.5 -113t-137 -268q-16 -158 81 -269.5t252.5 -111.5zM662 512q-211 0 -345.5 147.5t-112 354.5t186.5 354.5t375 147.5q219 0 351 -144.5t110 -357.5q-18 -150 -119 -285l-563 -729h-156
l418 535q-82 -23 -145 -23z" />
    <glyph glyph-name="colon" unicode=":" horiz-adv-x="499" 
d="M156 86q4 41 37.5 70.5t74.5 29.5t69 -29.5t23.5 -70.5t-38 -70.5t-74.5 -29.5t-68.5 29.5t-23.5 70.5zM246 938q2 41 36.5 70.5t75.5 29.5t69 -29.5t23.5 -70.5t-39 -70.5t-75.5 -29.5t-67.5 29.5t-22.5 70.5z" />
    <glyph glyph-name="semicolon" unicode=";" horiz-adv-x="499" 
d="M246 938q2 41 36.5 70.5t75.5 29.5t69 -29.5t23.5 -70.5t-39 -70.5t-75.5 -29.5t-67.5 29.5t-22.5 70.5zM188 -162q76 0 84 76l9 78q-14 -6 -33 -6q-41 0 -68.5 29.5t-23.5 70.5t37.5 70.5t74.5 29.5t69 -29.5t23 -70.5l-18 -172q-14 -135 -160 -135h-22l6 59h22z" />
    <glyph glyph-name="less" unicode="&#x3c;" horiz-adv-x="798" 
d="M98 571l602 453v-150l-483 -360l483 -364v-150l-602 453v118z" />
    <glyph glyph-name="equal" unicode="=" horiz-adv-x="1269" 
d="M123 422h1024v-123h-1024v123zM1147 602h-1024v123h1024v-123z" />
    <glyph glyph-name="greater" unicode="&#x3e;" horiz-adv-x="798" 
d="M98 1024l602 -453v-118l-602 -453v150l482 364l-482 360v150z" />
    <glyph glyph-name="question" unicode="?" horiz-adv-x="1220" 
d="M514 86q4 41 38 70.5t75 29.5t68.5 -29.5t23.5 -70.5t-38 -70.5t-75 -29.5t-68.5 29.5t-23.5 70.5zM578 338l30 297h66q158 0 280.5 111.5t139.5 267.5q16 158 -84.5 268.5t-255.5 110.5q-158 0 -281 -112t-137 -267h-131q23 207 186.5 353t374.5 146q213 0 348 -146
t115 -353q-20 -190 -163.5 -331.5t-338.5 -164.5l-18 -180h-131z" />
    <glyph glyph-name="at" unicode="@" horiz-adv-x="1630" 
d="M1130 397q-131 -125 -301 -125q-166 0 -271 115t-87 277q16 162 146.5 275.5t295.5 113.5q164 0 267.5 -114t87.5 -275l-19 -177q-4 -39 17.5 -66.5t58.5 -27.5t67.5 28t34.5 66l19 177q25 236 -126 404.5t-388 168.5q-236 0 -420 -168t-209 -405q-27 -238 122.5 -407
t385.5 -169q123 0 260 62l45 -107q-158 -74 -317 -74q-291 0 -476.5 204t-154.5 491q29 287 256 490.5t520 203.5q289 0 475.5 -204t157.5 -490l-21 -181q-8 -88 -81.5 -149.5t-163.5 -61.5q-66 0 -114.5 34t-66.5 91zM1141 664q10 111 -60.5 189.5t-181.5 78.5t-197 -79
t-96 -189q-12 -113 57.5 -192t180 -79t198 79t99.5 192z" />
    <glyph glyph-name="A" unicode="A" horiz-adv-x="1359" 
d="M842 1546l477 -1546h-137l-103 334h-729l-172 -334h-137zM807 1221l-395 -764h628z" />
    <glyph glyph-name="B" unicode="B" horiz-adv-x="1320" 
d="M1266 422q-18 -176 -157.5 -299t-320.5 -123h-641l156 1487h606q166 0 271.5 -113.5t89.5 -275.5q-12 -102 -77 -182t-149 -121v-7q102 -41 168 -141t54 -225zM1133 422q12 121 -68 208t-203 87h-510l-61 -594h510q123 0 221.5 88t110.5 211zM367 840h475
q111 0 195.5 74.5t97.5 183.5q10 111 -59.5 188.5t-180.5 77.5h-475z" />
    <glyph glyph-name="C" unicode="C" horiz-adv-x="1536" 
d="M311.5 741.5q-28.5 -270.5 141.5 -461t440 -190.5t481 191l80 -93q-250 -219 -573 -219q-330 0 -535 225.5t-170 547t286 548t580 226.5q324 0 531 -220l-103 -92q-174 190 -440 191q-270 0 -480 -191.5t-238.5 -462z" />
    <glyph glyph-name="D" unicode="D" horiz-adv-x="1488" 
d="M1468.5 743.5q-32.5 -309.5 -260 -526.5t-532.5 -217h-529l156 1485h528q305 0 487.5 -216t150 -525.5zM1333 743q27 260 -118.5 439.5t-397.5 179.5h-397l-129 -1239h397q252 0 434 180t211 440z" />
    <glyph glyph-name="E" unicode="E" horiz-adv-x="1280" 
d="M291 123h903l-12 -123h-1035l156 1485h1034l-14 -123h-903l-58 -557h768l-14 -123h-768z" />
    <glyph glyph-name="F" unicode="F" horiz-adv-x="1193" 
d="M279 0h-132l156 1485h993l-14 -123h-862l-58 -557h728l-15 -123h-727z" />
    <glyph glyph-name="G" unicode="G" horiz-adv-x="1601" 
d="M1563 805l-62 -574q-123 -123 -283.5 -192.5t-336.5 -69.5q-330 0 -535 225.5t-170 547t286 548t580 226.5q324 0 531 -220l-103 -92q-174 190 -440 191q-270 0 -480 -191.5t-238.5 -462t141.5 -461t440 -190.5t483 193l41 399h-463l15 123h594z" />
    <glyph glyph-name="H" unicode="H" horiz-adv-x="1400" 
d="M1253 0h-131l70 682h-844l-69 -682h-132l156 1485h131l-72 -680h844l72 680h131z" />
    <glyph glyph-name="I" unicode="I" horiz-adv-x="425" 
d="M147 0l156 1485h131l-155 -1485h-132z" />
    <glyph glyph-name="J" unicode="J" horiz-adv-x="903" 
d="M911 1485l-116 -1110q-20 -178 -153.5 -292t-307.5 -114q-168 0 -277 119l97 88q82 -86 192 -86q121 0 212 79t106 206l116 1110h131z" />
    <glyph glyph-name="K" unicode="K" horiz-adv-x="1249" 
d="M147 0l156 1485h131l-96 -912l860 912h166l-700 -744l544 -741h-166l-473 643l-252 -266l-38 -377h-132z" />
    <glyph glyph-name="L" unicode="L" horiz-adv-x="1159" 
d="M1130 123l-12 -123h-971l156 1485h131l-143 -1362h839z" />
    <glyph glyph-name="M" unicode="M" horiz-adv-x="1781" 
d="M147 0l162 1546l666 -739l821 739l-162 -1546h-131l129 1241l-676 -606l-548 606l-129 -1241h-132z" />
    <glyph glyph-name="N" unicode="N" horiz-adv-x="1441" 
d="M1286 -61l-883 1251l-124 -1190h-132l162 1546l885 -1251l125 1192h131z" />
    <glyph glyph-name="O" unicode="O" horiz-adv-x="1769" 
d="M311.5 741.5q-28.5 -270.5 141.5 -461t440 -190.5t481 190.5t239.5 461t-142.5 462t-441 191.5t-480 -191.5t-238.5 -462zM176 741.5q35 321.5 286 548t580.5 226.5t535.5 -226.5t171 -548t-287 -547t-581.5 -225.5t-534.5 225.5t-170 547z" />
    <glyph glyph-name="P" unicode="P" horiz-adv-x="1320" 
d="M1327.5 1011.5q-20.5 -196.5 -176.5 -335.5t-354 -139h-463l-55 -537h-132l156 1485h594q199 0 325 -138.5t105.5 -335zM1192 1011.5q16 147.5 -74 249t-235 101.5h-463l-74 -703h463q145 0 256 102.5t127 250z" />
    <glyph glyph-name="Q" unicode="Q" horiz-adv-x="1777" 
d="M1749 741q-31 -283 -238 -499l125 -140l-20 -186l-211 231q-236 -178 -524 -178q-332 0 -536 225.5t-169 548.5q35 322 286 547.5t580.5 225.5t535.5 -226.5t171 -548.5zM1614 741q27 270 -144.5 462t-439.5 192t-480 -191.5t-239 -462.5q-20 -174 48.5 -320.5
t201.5 -234.5q-23 76 -16 136q16 154 137 259t274.5 105t245.5 -104l225 -248q162 186 187 407zM893 90q233 0 432 150l-223 249q-68 76 -158 76q-98 0 -176 -70.5t-88 -168.5q-10 -96 53.5 -166t159.5 -70z" />
    <glyph glyph-name="R" unicode="R" horiz-adv-x="1320" 
d="M1044 0l-215 537h-495l-55 -537h-132l156 1485h594q199 0 325 -138.5t105 -334.5q-14 -154 -115.5 -276t-248.5 -171l225 -565h-144zM1192 1011.5q16 147.5 -74 249t-235 101.5h-463l-74 -703h463q145 0 256 102.5t127 250z" />
    <glyph glyph-name="S" unicode="S" horiz-adv-x="1208" 
d="M1202 1389l-82 -101q-162 113 -368 113q-143 0 -250 -79t-119 -200q-10 -90 31 -147t112.5 -85t159.5 -46.5t175 -44t156.5 -66.5t107.5 -125t26 -209q-20 -190 -179 -312t-370 -122q-299 0 -491 164l82 102q180 -145 421 -145q154 0 270.5 86t131.5 227q10 100 -30 165
t-110.5 95.5t-158.5 51t-175 44t-158 60.5t-109.5 115t-26.5 192q18 170 168.5 285t349.5 115q250 0 436 -133z" />
    <glyph glyph-name="T" unicode="T" horiz-adv-x="1183" 
d="M1284 1362h-485l-142 -1362h-131l142 1362h-486l15 123h1101z" />
    <glyph glyph-name="U" unicode="U" horiz-adv-x="1441" 
d="M716.5 -31q-239.5 0 -390 157t-125.5 390l102 969h131l-102 -969q-20 -184 95.5 -305t301.5 -121t326.5 121t161.5 305l102 969h131l-102 -969q-25 -233 -208.5 -390t-423 -157z" />
    <glyph glyph-name="V" unicode="V" horiz-adv-x="1359" 
d="M1475 1485l-803 -1546l-475 1546h137l373 -1221l630 1221h138z" />
    <glyph glyph-name="W" unicode="W" horiz-adv-x="1929" 
d="M2044 1485l-684 -1546l-275 1220l-532 -1220l-356 1546h135l262 -1155l532 1216l275 -1216l508 1155h135z" />
    <glyph glyph-name="X" unicode="X" horiz-adv-x="1294" 
d="M735 842l516 643h158l-602 -742l446 -743h-157l-381 645l-516 -645h-158l602 743l-446 742h157z" />
    <glyph glyph-name="Y" unicode="Y" horiz-adv-x="1349" 
d="M1307 1485h157l-655 -807l-70 -678h-131l70 678l-481 807h157l404 -684z" />
    <glyph glyph-name="Z" unicode="Z" horiz-adv-x="1247" 
d="M1147 0h-1106l1063 1362h-862l14 123h1106l-1065 -1362h862z" />
    <glyph glyph-name="bracketleft" unicode="[" horiz-adv-x="600" 
d="M682 1485l-14 -123h-207l-182 -1751h206l-14 -123h-338l211 1997h338z" />
    <glyph glyph-name="backslash" unicode="\" horiz-adv-x="1013" 
d="M866 6l-94 -37l-471 1510l92 39z" />
    <glyph glyph-name="bracketright" unicode="]" horiz-adv-x="600" 
d="M215 1362l14 123h338l-211 -1997h-338l15 123h207l182 1751h-207z" />
    <glyph glyph-name="asciicircum" unicode="^" horiz-adv-x="1138" 
d="M508 1485h123l360 -664h-137l-285 522l-284 -522h-138z" />
    <glyph glyph-name="underscore" unicode="_" horiz-adv-x="1024" 
d="M0 -164h1106v-49h-1106v49z" />
    <glyph glyph-name="grave" unicode="`" horiz-adv-x="880" 
d="M801 1389l-13 -115l-419 106l16 156z" />
    <glyph glyph-name="a" unicode="a" horiz-adv-x="1349" 
d="M1071 0l21 207h-5q-182 -238 -454 -238q-227 0 -366.5 159t-114.5 386q23 225 195.5 383t400.5 158q274 0 403 -238h4l23 207h131l-107 -1024h-131zM1124 514q18 174 -93 297t-285.5 123t-308.5 -122t-152.5 -298t90 -300t282.5 -124t311.5 124t155.5 300z" />
    <glyph glyph-name="b" unicode="b" horiz-adv-x="1349" 
d="M299 207l-20 -207h-132l160 1536h131l-76 -719h5q178 238 454 238q227 0 366.5 -158t117.5 -383q-25 -227 -198 -386t-400 -159q-272 0 -404 238h-4zM332 514q-18 -176 91 -300t283.5 -124t309.5 124t153.5 300t-91 298t-283.5 122t-309.5 -123t-153.5 -297z" />
    <glyph glyph-name="c" unicode="c" horiz-adv-x="1120" 
d="M1126 895l-94 -84q-111 123 -287 123q-174 0 -308 -123t-152 -297q-18 -176 90 -300t282 -124q176 0 312 125l78 -86q-180 -160 -402 -160q-227 0 -372.5 160t-120.5 385q23 223 201.5 382t406 159t366.5 -160z" />
    <glyph glyph-name="d" unicode="d" horiz-adv-x="1349" 
d="M1071 0l21 207h-5q-182 -238 -454 -238q-227 0 -366.5 159t-114.5 386q23 225 195.5 383t400.5 158q274 0 403 -238h4l76 719h131l-160 -1536h-131zM1124 514q18 174 -93 297t-285.5 123t-308.5 -122t-152.5 -298t90 -300t282.5 -124t311.5 124t155.5 300z" />
    <glyph glyph-name="e" unicode="e" horiz-adv-x="1290" 
d="M1245 514q-4 -43 -10 -63h-959q6 -154 113 -257.5t264 -103.5q119 0 223.5 60.5t167.5 160.5l93 -69q-86 -121 -219.5 -197t-276.5 -76q-225 0 -368.5 160t-120.5 385q23 223 200.5 382t403 159t369 -159t120.5 -382zM289 573h831q-8 152 -115.5 256.5t-263.5 104.5
q-158 0 -285.5 -103.5t-166.5 -257.5z" />
    <glyph glyph-name="f" unicode="f" horiz-adv-x="604" 
d="M264 903h-121l13 121h120l33 309q12 111 90 172.5t187 61.5q80 0 137 -45l-74 -99q-33 23 -76 23q-53 0 -90 -27.5t-43 -85.5l-32 -309h213l-13 -121h-213l-94 -903h-131z" />
    <glyph glyph-name="g" unicode="g" horiz-adv-x="1347" 
d="M1059 -74l26 269q-78 -98 -193.5 -162t-248.5 -64q-227 0 -371.5 160t-119.5 385q23 223 200.5 382t405.5 159q266 0 395 -238l23 207h131l-115 -1098q-27 -240 -189.5 -354.5t-412.5 -114.5q-231 0 -410 113l70 100q154 -96 352 -96q195 0 316 76.5t141 275.5zM1122 514
q18 174 -93 297t-286 123q-172 0 -306 -123t-152 -297q-18 -176 90 -300t280 -124q174 0 311.5 124t155.5 300z" />
    <glyph glyph-name="h" unicode="h" horiz-adv-x="1163" 
d="M147 0l160 1536h131l-71 -684h4q45 78 149.5 140.5t218.5 62.5q190 0 284.5 -113t76.5 -297l-68 -645h-131l68 645q12 129 -57.5 209t-196.5 80q-129 0 -244 -90t-127 -213l-65 -631h-132z" />
    <glyph glyph-name="i" unicode="i" horiz-adv-x="425" 
d="M254 1024h131l-106 -1024h-132zM276 1462q2 37 32 63.5t67 26.5t61.5 -26.5t20.5 -63.5q-4 -39 -34 -64.5t-67 -25.5t-60.5 25.5t-19.5 64.5z" />
    <glyph glyph-name="j" unicode="j" horiz-adv-x="507" 
d="M70 -424q121 0 133 123l139 1325h131l-139 -1325q-12 -111 -91 -176.5t-186 -65.5q-76 0 -125 39l62 105q31 -25 76 -25zM358 1462q2 37 32 63.5t67 26.5t61.5 -26.5t20.5 -63.5q-4 -39 -34 -64.5t-67 -25.5t-60.5 25.5t-19.5 64.5z" />
    <glyph glyph-name="k" unicode="k" horiz-adv-x="993" 
d="M395 422l-82 -76l-34 -346h-132l160 1536h131l-106 -1014l551 502h180l-567 -510l460 -514h-180z" />
    <glyph glyph-name="l" unicode="l" horiz-adv-x="425" 
d="M147 0l160 1536h131l-159 -1536h-132z" />
    <glyph glyph-name="m" unicode="m" horiz-adv-x="1615" 
d="M1485 0h-131l73 711q10 98 -52 160.5t-160.5 62.5t-175 -70.5t-87.5 -169.5l-71 -694h-131l71 694q10 98 -51 169t-157.5 71t-174.5 -68.5t-86 -163.5l-73 -702h-132l107 1024h131l-12 -127h4q102 158 266 158q195 0 287 -168q133 168 317 168q150 0 238 -97.5t74 -246.5
z" />
    <glyph glyph-name="n" unicode="n" horiz-adv-x="1163" 
d="M147 0l107 1024h131l-18 -172h4q45 78 149.5 140.5t218.5 62.5q190 0 284.5 -113t76.5 -297l-68 -645h-131l68 645q12 129 -57.5 209t-196.5 80q-129 0 -244 -90t-127 -213l-65 -631h-132z" />
    <glyph glyph-name="o" unicode="o" horiz-adv-x="1300" 
d="M657 90q174 0 309.5 124t153.5 300q18 174 -91 297t-284 123q-172 0 -307 -123t-153.5 -297t91 -299t281.5 -125zM645 -31q-227 0 -372.5 160t-120.5 385q23 223 201.5 382t406.5 159q229 0 373.5 -158t121.5 -383q-25 -225 -203 -385t-407 -160z" />
    <glyph glyph-name="p" unicode="p" horiz-adv-x="1349" 
d="M385 1024l-23 -207h5q182 238 454 238q227 0 366.5 -158t117.5 -385q-25 -225 -199 -384t-399 -159q-272 0 -404 238h-4l-76 -719h-131l162 1536h131zM332 512q-18 -174 91 -298t283.5 -124t309.5 123t153.5 299t-90 299t-284.5 123q-174 0 -309.5 -123t-153.5 -299z" />
    <glyph glyph-name="q" unicode="q" horiz-adv-x="1349" 
d="M1155 817l23 207h131l-162 -1536h-131l76 719h-5q-182 -238 -454 -238q-227 0 -366.5 159t-114.5 384q23 227 195.5 385t400.5 158q272 0 403 -238h4zM1124 512q18 176 -93 299t-285.5 123t-308.5 -123t-152.5 -299t90 -299t282.5 -123t311.5 124t155.5 298z" />
    <glyph glyph-name="r" unicode="r" horiz-adv-x="708" 
d="M664 1055q51 0 116 -21l-51 -116q-41 12 -80 12q-115 0 -204 -86t-99 -201l-67 -643h-132l107 1024h131l-16 -150h4q45 76 123 128.5t168 52.5z" />
    <glyph glyph-name="s" unicode="s" horiz-adv-x="1026" 
d="M106 80l76 106q152 -96 330 -96q135 0 217 53.5t92 143.5t-55.5 134t-164.5 58.5t-197.5 32.5t-161 84t-49.5 186q12 129 135 202t286 73q221 0 379 -101l-69 -104q-139 84 -322 84q-117 0 -192.5 -42t-81.5 -108q-8 -74 38 -114.5t120.5 -51t161.5 -28t160 -40t117 -92
t31 -179.5q-16 -141 -140 -226.5t-316 -85.5q-238 0 -394 111z" />
    <glyph glyph-name="t" unicode="t" horiz-adv-x="573" 
d="M156 1024h120l35 334h131l-34 -334h213l-13 -121h-213l-73 -704q-12 -109 98 -109q39 0 80 27l32 -111q-63 -37 -124 -37q-104 0 -167 58.5t-53 167.5l76 708h-121z" />
    <glyph glyph-name="u" unicode="u" horiz-adv-x="1163" 
d="M1122 1024l-106 -1024h-131l16 174h-4q-45 -80 -149.5 -142.5t-217.5 -62.5q-190 0 -284 113t-76 297l68 645h131l-68 -645q-14 -129 55.5 -209t196.5 -80t242.5 91t130.5 212l65 631h131z" />
    <glyph glyph-name="v" unicode="v" horiz-adv-x="1058" 
d="M520 -63l-373 1087h138l268 -782l432 782h139z" />
    <glyph glyph-name="w" unicode="w" horiz-adv-x="1576" 
d="M147 1024h138l211 -750l405 813l238 -813l366 750h137l-540 -1087l-236 811l-407 -811z" />
    <glyph glyph-name="x" unicode="x" horiz-adv-x="993" 
d="M475 514l-319 510h155l250 -406l334 406h156l-424 -510l315 -514h-154l-249 406l-334 -406h-156z" />
    <glyph glyph-name="y" unicode="y" horiz-adv-x="1056" 
d="M463 12l-316 1012h138l262 -848l438 848h137l-798 -1536h-138z" />
    <glyph glyph-name="z" unicode="z" horiz-adv-x="948" 
d="M293 123h602l-12 -123h-842l721 901h-602l12 123h842z" />
    <glyph glyph-name="braceleft" unicode="{" horiz-adv-x="700" 
d="M768 1362h-68q-41 0 -72.5 -31t-35.5 -74l-64 -606q-10 -98 -125 -162v-2q102 -59 91 -163l-64 -607q-4 -43 21.5 -74.5t66.5 -31.5h68l-15 -123h-67q-94 0 -154.5 67.5t-50.5 161.5l63 605q4 43 -21.5 73.5t-66.5 30.5h-43l15 123h43q41 0 72.5 30.5t35.5 73.5l64 604
q8 92 84 160t170 68h67z" />
    <glyph glyph-name="bar" unicode="|" horiz-adv-x="720" 
d="M426 -512h-131v1997h131v-1997z" />
    <glyph glyph-name="braceright" unicode="}" horiz-adv-x="700" 
d="M283 1362h-68l14 123h68q94 0 154.5 -67.5t50.5 -160.5l-64 -604q-4 -43 21.5 -73.5t66.5 -30.5h43l-14 -123h-43q-41 0 -72.5 -30.5t-36.5 -73.5l-63 -605q-8 -94 -84 -161.5t-170 -67.5h-68l15 123h67q41 0 73 31.5t36 74.5l63 607q12 104 127 163v2q-102 61 -92 162
l64 606q4 43 -21.5 74t-66.5 31z" />
    <glyph glyph-name="asciitilde" unicode="~" horiz-adv-x="1058" 
d="M791 399q-68 -33 -128.5 -25.5t-100.5 41.5t-83 67.5t-75.5 52t-79.5 -4.5q-63 -31 -64 -108h-113q0 63 32 119.5t91 85.5q86 41 157 19.5t115 -68t96 -77t99 -5.5q61 29 62 108h112q0 -63 -31.5 -118.5t-88.5 -86.5z" />
    <glyph glyph-name="uni00A0" unicode="&#xa0;" horiz-adv-x="1024" 
 />
    <glyph glyph-name="exclamdown" unicode="&#xa1;" horiz-adv-x="532" 
d="M342 1163h90l-96 -1163h-139zM309 1399q4 41 38 70.5t75 29.5t68.5 -29.5t23.5 -70.5t-38 -71t-75 -30t-68.5 30t-23.5 71z" />
    <glyph glyph-name="cent" unicode="&#xa2;" horiz-adv-x="1120" 
d="M694 -195h-131l17 170q-205 23 -328 176.5t-100 362.5q20 205 175.5 358.5t364.5 176.5l17 141h131l-17 -139q184 -20 303 -156l-94 -84q-111 123 -287 123q-174 0 -308 -123t-152 -297q-18 -176 90 -300t282 -124q176 0 312 125l78 -86q-147 -131 -336 -156z" />
    <glyph glyph-name="sterling" unicode="&#xa3;" horiz-adv-x="1222" 
d="M1223 1378l-90 -82q-98 98 -244 99q-158 0 -267.5 -98.5t-125.5 -249.5l-25 -242h514l-14 -123h-514l-39 -381q-4 -29 -10 -53q41 4 55 4q63 0 115.5 -25.5t82 -55.5t72.5 -55.5t90 -25.5q86 0 154 64l84 73l78 -86l-82 -73q-109 -98 -246 -99q-68 0 -121 24.5
t-82.5 55.5t-72.5 55.5t-91 24.5q-76 0 -163 -72l-97 -84l-75 88l98 86q66 59 76 156l39 379h-154l14 123h154l24 242q20 201 179 335t362 134q197 -1 322 -138z" />
    <glyph glyph-name="currency" unicode="&#xa4;" horiz-adv-x="1243" 
d="M1145 950l-141 -141q113 -145 112 -295q0 -154 -112 -299l141 -141l-86 -84l-141 141q-127 -100 -295 -100t-297 100l-142 -141l-86 84l142 141q-111 143 -111 299q0 152 111 295l-142 141l86 84l142 -141q133 102 297 102q166 0 295 -102l141 141zM264 514
q0 -152 104.5 -258t254 -106t254 106t104.5 258q0 150 -104.5 256.5t-254 106.5t-254 -106.5t-104.5 -256.5z" />
    <glyph glyph-name="yen" unicode="&#xa5;" horiz-adv-x="1284" 
d="M1229 885h-295l-113 -148h391l-12 -123h-430l-63 -614h-132l64 614h-430l12 123h391l-80 148h-294l12 123h215l-260 477h157l363 -684l508 684h158l-365 -477h215z" />
    <glyph glyph-name="brokenbar" unicode="&#xa6;" horiz-adv-x="720" 
d="M426 -512h-131v885h131v-885zM426 1485v-885h-131v885h131z" />
    <glyph glyph-name="section" unicode="&#xa7;" horiz-adv-x="1087" 
d="M1016 512q-20 -166 -201 -246q150 -76 131 -239q-12 -125 -135 -196t-289 -71q-221 0 -379 101l70 100q131 -80 322 -80q117 0 193.5 42t82.5 104q8 76 -36 112.5t-138 48.5l-197 33q-129 16 -203.5 90t-58.5 209q20 164 203 248q-152 72 -133 236q12 127 135 198.5
t287 71.5q223 0 379 -103l-68 -100q-129 82 -324 82q-117 0 -193.5 -43t-82.5 -106q-8 -76 36 -111t140 -47l195 -33q129 -16 204.5 -91t59.5 -210zM313 518q-8 -94 61.5 -143t203.5 -49q139 0 215.5 53t87.5 139q10 94 -59.5 143.5t-203.5 49.5q-139 0 -217 -53.5
t-88 -139.5z" />
    <glyph glyph-name="dieresis" unicode="&#xa8;" horiz-adv-x="1069" 
d="M371 1403q4 41 37.5 69.5t74.5 28.5t66.5 -28.5t21.5 -69.5q-2 -39 -35.5 -68.5t-74.5 -29.5t-67.5 28.5t-22.5 69.5zM788.5 1403q4.5 41 38 69.5t74.5 28.5t66.5 -28.5t21.5 -69.5q-2 -39 -35.5 -68.5t-74.5 -29.5t-68 28.5t-22.5 69.5z" />
    <glyph glyph-name="copyright" unicode="&#xa9;" horiz-adv-x="1284" 
d="M365 514q0 -117 80.5 -199t195.5 -82q113 0 199 82l59 -61q-104 -104 -258 -104q-152 0 -258.5 105t-106.5 259q0 150 108 256.5t257 106.5q152 0 258 -107l-59 -61q-82 82 -199 82q-113 0 -194.5 -82t-81.5 -195zM1120 514q0 197 -140 337t-339 140t-338 -140t-139 -337
q0 -199 139 -340t338 -141t339 141t140 340zM1186 514q0 -225 -160 -385t-385 -160t-384 160t-159 385q0 223 159 382t384 159t385 -159t160 -382z" />
    <glyph glyph-name="ordfeminine" unicode="&#xaa;" horiz-adv-x="772" 
d="M684 973l12 102h-2q-90 -119 -227 -119q-113 0 -182.5 80t-57.5 193q10 113 96.5 191.5t198.5 78.5q141 0 203 -119h2l12 105h66l-55 -512h-66zM713 1229q8 88 -47.5 149.5t-143.5 61.5t-153.5 -61.5t-75.5 -149.5t44 -149.5t142 -61.5t157 61.5t77 149.5z" />
    <glyph glyph-name="guillemotleft" unicode="&#xab;" horiz-adv-x="829" 
d="M750 178l-297 334l366 330l-18 -170l-178 -160l143 -164zM516 842l-18 -170l-176 -160l141 -164l-17 -170l-294 334z" />
    <glyph glyph-name="logicalnot" unicode="&#xac;" horiz-adv-x="870" 
d="M723 332h-131v119h-445v122h576v-241z" />
    <glyph glyph-name="registered" unicode="&#xae;" horiz-adv-x="686" 
d="M588 1274q0 -100 -72 -172t-172 -72q-102 0 -174 72t-72 172t72 171t174 71q100 0 172 -71t72 -171zM559 1274q0 90 -62.5 152.5t-152.5 62.5t-153.5 -62.5t-63.5 -152.5t63.5 -153.5t153.5 -63.5t152.5 63.5t62.5 153.5zM475 1335q0 -72 -67 -96l61 -121h-31l-59 117
h-119v-117h-29v316h142q43 0 72.5 -29t29.5 -70zM444 1335q0 29 -20.5 50.5t-50.5 21.5h-113v-145h113q31 0 51 20t20 53z" />
    <glyph glyph-name="macron" unicode="&#xaf;" horiz-adv-x="856" 
d="M786 1485l-12 -119h-405l12 119h405z" />
    <glyph glyph-name="degree" unicode="&#xb0;" horiz-adv-x="651" 
d="M430 1319q0 43 -29.5 72.5t-74.5 29.5q-43 0 -74 -29.5t-31 -72.5t31 -72.5t74 -29.5q45 0 74.5 28.5t29.5 73.5zM528 1319q0 -82 -59 -139.5t-143 -57.5t-143.5 57.5t-59.5 139.5t59.5 139.5t143.5 57.5t143 -57.5t59 -139.5z" />
    <glyph glyph-name="plusminus" unicode="&#xb1;" horiz-adv-x="1269" 
d="M571 602h-448v123h448v299h131v-299h445v-123h-445v-299h-131v299zM123 123h1024v-123h-1024v123z" />
    <glyph glyph-name="uni00B2" unicode="&#xb2;" horiz-adv-x="698" 
d="M635 1071l-291 -264h315l-6 -62h-465l408 373q57 55 68 133q8 78 -42.5 134.5t-126 56.5t-134 -57.5t-66.5 -137.5h-66q10 106 91 180t184 74q104 0 170.5 -73.5t56.5 -176.5q-12 -106 -96 -180z" />
    <glyph glyph-name="uni00B3" unicode="&#xb3;" horiz-adv-x="671" 
d="M276 1163l293 260h-288l6 62h442l-285 -256l19 2q109 0 174 -72t55 -180q-10 -102 -93 -177t-189 -75q-104 0 -170 73.5t-56 176.5h66q-8 -76 41 -132.5t125 -56.5q78 0 138 56.5t71 134.5q8 80 -40 135t-128 55q-78 0 -138 -55z" />
    <glyph glyph-name="acute" unicode="&#xb4;" horiz-adv-x="880" 
d="M358 1274l13 115l444 147l-16 -156z" />
    <glyph glyph-name="mu" unicode="&#xb5;" horiz-adv-x="1179" 
d="M92 -512l162 1536h131l-68 -645q-14 -129 55.5 -209t196.5 -80t243 91t130 212l66 631h131l-107 -1024h-131l17 174h-5q-45 -80 -149.5 -142.5t-216.5 -62.5q-174 0 -260 113l-64 -594h-131z" />
    <glyph glyph-name="paragraph" unicode="&#xb6;" horiz-adv-x="1208" 
d="M178 1112q14 152 139 262.5t281 110.5h619l-156 -1485h-131l141 1362h-190l-142 -1362h-131l76 739h-166q-156 0 -256 110.5t-84 262.5zM313 1112q-10 -102 53.5 -176t165.5 -74h166l52 500h-166q-102 0 -181.5 -73t-89.5 -177z" />
    <glyph glyph-name="periodcentered" unicode="&#xb7;" horiz-adv-x="499" 
d="M201 512q4 41 37.5 70.5t74.5 29.5t69 -29.5t23.5 -70.5t-38 -70.5t-74.5 -29.5t-68.5 29.5t-23.5 70.5z" />
    <glyph glyph-name="cedilla" unicode="&#xb8;" horiz-adv-x="794" 
d="M223 -209l60 209h55l-37 -139q47 29 103.5 32t100.5 -42.5t36 -118.5q-8 -72 -63.5 -118t-129.5 -46t-117 45t-34 117h61q-4 -45 23.5 -76t72.5 -31t80 31t39 76q6 53 -21.5 79.5t-74.5 26.5q-68 0 -94 -49z" />
    <glyph glyph-name="uni00B9" unicode="&#xb9;" horiz-adv-x="468" 
d="M262 1333l8 72l209 113l-80 -773h-67l69 664z" />
    <glyph glyph-name="ordmasculine" unicode="&#xba;" horiz-adv-x="747" 
d="M479 1018q88 0 154.5 61.5t77 149.5t-45 149.5t-143.5 61.5q-86 0 -152.5 -61.5t-76.5 -149.5q-8 -88 46 -149.5t140 -61.5zM473 956q-113 0 -185.5 80t-60.5 193q10 113 98.5 191.5t203 78.5t187 -79t62.5 -191q-12 -113 -101 -193t-204 -80z" />
    <glyph glyph-name="guillemotright" unicode="&#xbb;" horiz-adv-x="829" 
d="M483 512l-366 -334l16 170l180 164l-145 160l18 170zM471 672l18 170l295 -330l-364 -334l16 170l178 164z" />
    <glyph glyph-name="onequarter" unicode="&#xbc;" horiz-adv-x="1380" 
d="M262 1333l8 72l209 113l-80 -773h-67l69 664zM1139 1489l-793 -1520l-51 27l790 1520zM1130 571l-282 -340h246zM1217 772l-58 -541h121l-6 -61h-121l-16 -170h-68l16 170h-362z" />
    <glyph glyph-name="onehalf" unicode="&#xbd;" horiz-adv-x="1437" 
d="M262 1333l8 72l209 113l-80 -773h-67l69 664zM1296 326l-290 -265h315l-6 -61h-465l407 373q59 55 66 133q10 78 -40 134t-126 56t-134 -57t-69 -137h-65q12 106 92 180t182 74q104 0 172 -74t56 -176q-11 -106 -95 -180zM1139 1489l-793 -1520l-51 27l790 1520z" />
    <glyph glyph-name="threequarters" unicode="&#xbe;" horiz-adv-x="1568" 
d="M1319 571l-283 -340h246zM1405 772l-57 -541h120l-6 -61h-121l-16 -170h-68l17 170h-363zM276 1163l293 260h-288l6 62h442l-285 -256l19 2q109 0 174 -72t55 -180q-10 -102 -93 -177t-189 -75q-104 0 -170 73.5t-56 176.5h66q-8 -76 41 -132.5t125 -56.5q78 0 138 56.5
t71 134.5q8 80 -40 135t-128 55q-78 0 -138 -55zM1327 1489l-792 -1520l-52 27l791 1520z" />
    <glyph glyph-name="questiondown" unicode="&#xbf;" horiz-adv-x="1220" 
d="M860 1397q-4 -41 -38 -71t-74.5 -30t-68.5 30t-24 71t38 70.5t75 29.5t68.5 -29.5t23.5 -70.5zM797 1145l-31 -297h-66q-158 0 -280.5 -111.5t-136.5 -267.5q-16 -158 83 -268.5t255 -110.5q158 0 280.5 111.5t138.5 267.5h131q-23 -207 -187.5 -353.5t-375.5 -146.5
q-213 0 -348 146.5t-113 353.5q20 190 163 331.5t337 164.5l19 180h131z" />
    <glyph glyph-name="Agrave" unicode="&#xc0;" horiz-adv-x="1359" 
d="M1081 1671l-12 -115l-418 107l17 156zM842 1546l477 -1546h-137l-103 334h-729l-172 -334h-137zM807 1221l-395 -764h628z" />
    <glyph glyph-name="Aacute" unicode="&#xc1;" horiz-adv-x="1359" 
d="M614 1556l13 115l446 148l-16 -156zM842 1546l477 -1546h-137l-103 334h-729l-172 -334h-137zM807 1221l-395 -764h628z" />
    <glyph glyph-name="Acircumflex" unicode="&#xc2;" horiz-adv-x="1359" 
d="M842 1546l477 -1546h-137l-103 334h-729l-172 -334h-137zM807 1221l-395 -764h628zM930 1815l186 -244h-112l-146 135l-174 -135h-111l238 244h119z" />
    <glyph glyph-name="Atilde" unicode="&#xc3;" horiz-adv-x="1359" 
d="M748 1808q47 0 83.5 -21.5t55 -48t41 -48t43.5 -21.5q35 0 60.5 21.5t27.5 58.5h106q-8 -80 -65.5 -133t-132.5 -53q-45 0 -81 21.5t-56.5 48t-43 48t-43.5 21.5q-35 0 -59.5 -23.5t-26.5 -60.5h-110q8 82 65.5 136t135.5 54zM842 1546l477 -1546h-137l-103 334h-729
l-172 -334h-137zM807 1221l-395 -764h628z" />
    <glyph glyph-name="Adieresis" unicode="&#xc4;" horiz-adv-x="1359" 
d="M541 1634q4 41 36.5 70t73.5 29t67.5 -29t22.5 -70q-2 -39 -35.5 -68.5t-74.5 -29.5t-67.5 28.5t-22.5 69.5zM958.5 1634q4.5 41 37 70t73.5 29t67.5 -29t22.5 -70q-2 -39 -35.5 -68.5t-74.5 -29.5t-68 28.5t-22.5 69.5zM842 1546l477 -1546h-137l-103 334h-729
l-172 -334h-137zM807 1221l-395 -764h628z" />
    <glyph glyph-name="Aring" unicode="&#xc5;" horiz-adv-x="1359" 
d="M1073 1618q-8 -74 -62.5 -133.5t-125.5 -77.5l434 -1407h-137l-103 334h-729l-172 -334h-137l729 1407q-70 18 -111 77.5t-32 133.5q8 88 80.5 150.5t163 62.5t150.5 -62.5t52 -150.5zM807 1221l-395 -764h628zM983 1620q4 55 -30.5 90t-90.5 35q-57 0 -99 -35t-46 -90
q-6 -49 20.5 -86t73.5 -45l31 57l16 -57q47 8 83 45t42 86z" />
    <glyph glyph-name="AE" unicode="&#xc6;" horiz-adv-x="2211" 
d="M2114 0h-1035l35 334h-680l-278 -334h-156l1235 1485h1034l-14 -123h-903l-58 -557h768l-14 -123h-768l-57 -559h903zM1212 1278l-677 -821h591z" />
    <glyph glyph-name="Ccedilla" unicode="&#xc7;" horiz-adv-x="1536" 
d="M713 -209l51 186q-285 41 -452 257.5t-136 506.5q35 322 286 547t580 225q326 0 531 -217l-103 -92q-174 190 -440 191q-270 0 -480 -191.5t-238.5 -462t141.5 -461t440 -190.5t481 191l80 -93q-250 -219 -573 -219q-10 0 -31 1t-31 1l-28 -110q47 29 103 32t100 -42.5
t36 -118.5q-8 -72 -63.5 -118t-129 -46t-116.5 45t-35 117h62q-4 -45 23.5 -76t72.5 -31t79.5 31t39.5 76q6 53 -22 79.5t-75 26.5q-68 0 -94 -49z" />
    <glyph glyph-name="Egrave" unicode="&#xc8;" horiz-adv-x="1280" 
d="M291 123h903l-12 -123h-1035l156 1485h1034l-14 -123h-903l-58 -557h768l-14 -123h-768zM1067 1671l-12 -115l-418 107l16 156z" />
    <glyph glyph-name="Eacute" unicode="&#xc9;" horiz-adv-x="1280" 
d="M291 123h903l-12 -123h-1035l156 1485h1034l-14 -123h-903l-58 -557h768l-14 -123h-768zM600 1556l12 115l447 148l-17 -156z" />
    <glyph glyph-name="Ecircumflex" unicode="&#xca;" horiz-adv-x="1312" 
d="M291 123h903l-12 -123h-1035l156 1485h1034l-14 -123h-903l-58 -557h768l-14 -123h-768zM913 1815l187 -244h-113l-145 135l-174 -135h-111l238 244h118z" />
    <glyph glyph-name="Edieresis" unicode="&#xcb;" horiz-adv-x="1312" 
d="M291 123h903l-12 -123h-1035l156 1485h1034l-14 -123h-903l-58 -557h768l-14 -123h-768zM528 1655q4 41 37 69.5t74 28.5t67.5 -28.5t22.5 -69.5q-2 -39 -36 -69t-74.5 -30t-67.5 29t-23 70zM946 1655q4 41 37 69.5t74 28.5t67.5 -28.5t22.5 -69.5q-2 -39 -36 -69
t-75 -30t-67.5 29t-22.5 70z" />
    <glyph glyph-name="Igrave" unicode="&#xcc;" horiz-adv-x="425" 
d="M147 0l156 1485h131l-155 -1485h-132zM602 1671l-12 -115l-418 107l16 156z" />
    <glyph glyph-name="Iacute" unicode="&#xcd;" horiz-adv-x="425" 
d="M147 0l156 1485h131l-155 -1485h-132zM160 1556l12 115l446 148l-16 -156z" />
    <glyph glyph-name="Icircumflex" unicode="&#xce;" horiz-adv-x="425" 
d="M147 0l156 1485h131l-155 -1485h-132zM463 1815l186 -244h-112l-146 135l-174 -135h-111l238 244h119z" />
    <glyph glyph-name="Idieresis" unicode="&#xcf;" horiz-adv-x="425" 
d="M147 0l156 1485h131l-155 -1485h-132zM108.5 1655q4.5 41 37 69.5t73.5 28.5t67.5 -28.5t22.5 -69.5q-2 -39 -35.5 -69t-74.5 -30t-68 29t-22.5 70zM461 1655q4 41 36.5 69.5t73.5 28.5t68 -28.5t23 -69.5q-2 -39 -36 -69t-75 -30t-67.5 29t-22.5 70z" />
    <glyph glyph-name="Eth" unicode="&#xd0;" horiz-adv-x="1540" 
d="M1519.5 743.5q-32.5 -309.5 -260 -526.5t-532.5 -217h-528l69 682h-125l15 123h125l71 680h529q305 0 487 -216t149.5 -525.5zM713 682h-314l-57 -559h397q252 0 434.5 180t210.5 440q27 260 -118.5 439.5t-397.5 179.5h-397l-57 -557h313z" />
    <glyph glyph-name="Ntilde" unicode="&#xd1;" horiz-adv-x="1441" 
d="M788 1808q47 0 84 -21.5t55.5 -48t41 -48t43.5 -21.5q35 0 60.5 21.5t27.5 58.5h106q-8 -80 -65.5 -133t-132.5 -53q-45 0 -81 21.5t-56.5 48t-43 48t-43.5 21.5q-35 0 -59.5 -23.5t-26.5 -60.5h-110q8 82 65 136t135 54zM1286 -61l-883 1251l-124 -1190h-132l162 1546
l885 -1251l125 1192h131z" />
    <glyph glyph-name="Ograve" unicode="&#xd2;" horiz-adv-x="1769" 
d="M1288 1671l-12 -115l-418 107l16 156zM311.5 741.5q-28.5 -270.5 141.5 -461t440 -190.5t481 190.5t239.5 461t-142.5 462t-441 191.5t-480 -191.5t-238.5 -462zM176 741.5q35 321.5 286 548t580.5 226.5t535.5 -226.5t171 -548t-287 -547t-581.5 -225.5t-534.5 225.5
t-170 547z" />
    <glyph glyph-name="Oacute" unicode="&#xd3;" horiz-adv-x="1769" 
d="M817 1556l12 115l447 148l-16 -156zM311.5 741.5q-28.5 -270.5 141.5 -461t440 -190.5t481 190.5t239.5 461t-142.5 462t-441 191.5t-480 -191.5t-238.5 -462zM176 741.5q35 321.5 286 548t580.5 226.5t535.5 -226.5t171 -548t-287 -547t-581.5 -225.5t-534.5 225.5
t-170 547z" />
    <glyph glyph-name="Ocircumflex" unicode="&#xd4;" horiz-adv-x="1769" 
d="M311.5 741.5q-28.5 -270.5 141.5 -461t440 -190.5t481 190.5t239.5 461t-142.5 462t-441 191.5t-480 -191.5t-238.5 -462zM176 741.5q35 321.5 286 548t580.5 226.5t535.5 -226.5t171 -548t-287 -547t-581.5 -225.5t-534.5 225.5t-170 547zM1135 1815l186 -244h-113
l-145 135l-174 -135h-111l238 244h119z" />
    <glyph glyph-name="Otilde" unicode="&#xd5;" horiz-adv-x="1769" 
d="M952 1808q47 0 84 -21.5t55.5 -48t41 -48t43.5 -21.5q35 0 60.5 21.5t27.5 58.5h106q-8 -80 -65.5 -133t-133.5 -53q-45 0 -80.5 21.5t-56 48t-43 48t-43.5 21.5q-35 0 -59.5 -23.5t-26.5 -60.5h-110q8 82 65 136t135 54zM311.5 741.5q-28.5 -270.5 141.5 -461
t440 -190.5t481 190.5t239.5 461t-142.5 462t-441 191.5t-480 -191.5t-238.5 -462zM176 741.5q35 321.5 286 548t580.5 226.5t535.5 -226.5t171 -548t-287 -547t-581.5 -225.5t-534.5 225.5t-170 547z" />
    <glyph glyph-name="Odieresis" unicode="&#xd6;" horiz-adv-x="1769" 
d="M311.5 741.5q-28.5 -270.5 141.5 -461t440 -190.5t481 190.5t239.5 461t-142.5 462t-441 191.5t-480 -191.5t-238.5 -462zM176 741.5q35 321.5 286 548t580.5 226.5t535.5 -226.5t171 -548t-287 -547t-581.5 -225.5t-534.5 225.5t-170 547zM747.5 1655q4.5 41 37 69.5
t73.5 28.5t67.5 -28.5t22.5 -69.5q-2 -39 -35.5 -69t-74.5 -30t-68 29t-22.5 70zM1165 1655q4 41 37 69.5t74 28.5t67.5 -28.5t22.5 -69.5q-2 -39 -36 -69t-75 -30t-67.5 29t-22.5 70z" />
    <glyph glyph-name="multiply" unicode="&#xd7;" horiz-adv-x="1241" 
d="M1057 1034l86 -84l-436 -436l436 -440l-86 -84l-436 438l-439 -438l-84 84l437 440l-437 436l84 84l439 -436z" />
    <glyph glyph-name="Oslash" unicode="&#xd8;" horiz-adv-x="1785" 
d="M147 76l172 155q-168 219 -135 510q35 322 286 548.5t581 226.5q289 0 487 -183l176 160l78 -86l-174 -158q170 -215 139 -508q-35 -322 -286.5 -547t-581.5 -225q-289 0 -490 178l-174 -157zM1622 741q25 231 -106 416l-1014 -917q162 -150 399 -150q270 0 481 190.5
t240 460.5zM319 741q-27 -236 105 -415l1014 917q-168 152 -400 152q-270 0 -480 -192t-239 -462z" />
    <glyph glyph-name="Ugrave" unicode="&#xd9;" horiz-adv-x="1441" 
d="M1122 1671l-12 -115l-418 107l17 156zM716.5 -31q-239.5 0 -390 157t-125.5 390l102 969h131l-102 -969q-20 -184 95.5 -305t301.5 -121t326.5 121t161.5 305l102 969h131l-102 -969q-25 -233 -208.5 -390t-423 -157z" />
    <glyph glyph-name="Uacute" unicode="&#xda;" horiz-adv-x="1441" 
d="M655 1556l13 115l446 148l-16 -156zM716.5 -31q-239.5 0 -390 157t-125.5 390l102 969h131l-102 -969q-20 -184 95.5 -305t301.5 -121t326.5 121t161.5 305l102 969h131l-102 -969q-25 -233 -208.5 -390t-423 -157z" />
    <glyph glyph-name="Ucircumflex" unicode="&#xdb;" horiz-adv-x="1441" 
d="M971 1815l186 -244h-113l-145 135l-174 -135h-111l238 244h119zM716.5 -31q-239.5 0 -390 157t-125.5 390l102 969h131l-102 -969q-20 -184 95.5 -305t301.5 -121t326.5 121t161.5 305l102 969h131l-102 -969q-25 -233 -208.5 -390t-423 -157z" />
    <glyph glyph-name="Udieresis" unicode="&#xdc;" horiz-adv-x="1441" 
d="M582 1634q4 41 36.5 70t73.5 29t67.5 -29t22.5 -70q-2 -39 -35.5 -68.5t-74.5 -29.5t-67.5 28.5t-22.5 69.5zM999.5 1634q4.5 41 37 70t73.5 29t67.5 -29t22.5 -70q-2 -39 -36 -68.5t-74.5 -29.5t-67.5 28.5t-22.5 69.5zM716.5 -31q-239.5 0 -390 157t-125.5 390l102 969
h131l-102 -969q-20 -184 95.5 -305t301.5 -121t326.5 121t161.5 305l102 969h131l-102 -969q-25 -233 -208.5 -390t-423 -157z" />
    <glyph glyph-name="Yacute" unicode="&#xdd;" horiz-adv-x="1349" 
d="M608 1556l13 115l446 148l-16 -156zM1307 1485h157l-655 -807l-70 -678h-131l70 678l-481 807h157l404 -684z" />
    <glyph glyph-name="Thorn" unicode="&#xde;" horiz-adv-x="1320" 
d="M147 0l156 1485h131l-20 -185h534q172 0 278.5 -115.5t90.5 -285.5q-18 -170 -149.5 -286.5t-303.5 -116.5h-534l-51 -496h-132zM1182 899q12 121 -57.5 200t-188.5 79h-535l-59 -560h535q119 0 205 80t100 201z" />
    <glyph glyph-name="germandbls" unicode="&#xdf;" horiz-adv-x="1155" 
d="M279 0h-132l119 1133q16 160 142.5 271.5t289.5 111.5q166 0 272.5 -113t88.5 -273q-23 -176 -197 -296q121 -55 187.5 -163t52.5 -237q-20 -180 -162.5 -307t-327.5 -127h-180l12 123h181q129 0 228 90t113.5 221t-66.5 223.5t-210 92.5h-180l12 122h109q111 0 195.5 75
t97.5 183q10 111 -58.5 188t-179.5 77q-106 0 -192 -78t-97 -187z" />
    <glyph glyph-name="agrave" unicode="&#xe0;" horiz-adv-x="1349" 
d="M1022 1389l-12 -115l-420 106l16 156zM1071 0l21 207h-5q-182 -238 -454 -238q-227 0 -366.5 159t-114.5 386q23 225 195.5 383t400.5 158q274 0 403 -238h4l23 207h131l-107 -1024h-131zM1124 514q18 174 -93 297t-285.5 123t-308.5 -122t-152.5 -298t90 -300
t282.5 -124t311.5 124t155.5 300z" />
    <glyph glyph-name="aacute" unicode="&#xe1;" horiz-adv-x="1349" 
d="M555 1274l12 115l445 147l-17 -156zM1071 0l21 207h-5q-182 -238 -454 -238q-227 0 -366.5 159t-114.5 386q23 225 195.5 383t400.5 158q274 0 403 -238h4l23 207h131l-107 -1024h-131zM1124 514q18 174 -93 297t-285.5 123t-308.5 -122t-152.5 -298t90 -300t282.5 -124
t311.5 124t155.5 300z" />
    <glyph glyph-name="acircumflex" unicode="&#xe2;" horiz-adv-x="1349" 
d="M1071 0l21 207h-5q-182 -238 -454 -238q-227 0 -366.5 159t-114.5 386q23 225 195.5 383t400.5 158q274 0 403 -238h4l23 207h131l-107 -1024h-131zM1124 514q18 174 -93 297t-285.5 123t-308.5 -122t-152.5 -298t90 -300t282.5 -124t311.5 124t155.5 300zM864 1485
l187 -244h-113l-145 135l-175 -135h-110l237 244h119z" />
    <glyph glyph-name="atilde" unicode="&#xe3;" horiz-adv-x="1349" 
d="M1071 0l21 207h-5q-182 -238 -454 -238q-227 0 -366.5 159t-114.5 386q23 225 195.5 383t400.5 158q274 0 403 -238h4l23 207h131l-107 -1024h-131zM1124 514q18 174 -93 297t-285.5 123t-308.5 -122t-152.5 -298t90 -300t282.5 -124t311.5 124t155.5 300zM686 1501
q47 0 83 -21.5t54.5 -48t41 -48t42.5 -21.5q35 0 60.5 21.5t27.5 58.5h107q-8 -80 -65.5 -133.5t-133.5 -53.5q-45 0 -81 21.5t-56.5 48.5t-43 48.5t-42.5 21.5q-35 0 -59.5 -23.5t-26.5 -60.5h-111q8 82 66.5 136t136.5 54z" />
    <glyph glyph-name="adieresis" unicode="&#xe4;" horiz-adv-x="1349" 
d="M1071 0l21 207h-5q-182 -238 -454 -238q-227 0 -366.5 159t-114.5 386q23 225 195.5 383t400.5 158q274 0 403 -238h4l23 207h131l-107 -1024h-131zM1124 514q18 174 -93 297t-285.5 123t-308.5 -122t-152.5 -298t90 -300t282.5 -124t311.5 124t155.5 300zM485 1403
q4 41 38 69.5t75 28.5t66.5 -28.5t21.5 -69.5q-2 -39 -36 -68.5t-74.5 -29.5t-67.5 28.5t-23 69.5zM903 1403q4 41 38 69.5t75 28.5t66.5 -28.5t21.5 -69.5q-2 -39 -36 -68.5t-75 -29.5t-67.5 28.5t-22.5 69.5z" />
    <glyph glyph-name="aring" unicode="&#xe5;" horiz-adv-x="1349" 
d="M1071 0l21 207h-5q-182 -238 -454 -238q-227 0 -366.5 159t-114.5 386q23 225 195.5 383t400.5 158q274 0 403 -238h4l23 207h131l-107 -1024h-131zM1124 514q18 174 -93 297t-285.5 123t-308.5 -122t-152.5 -298t90 -300t282.5 -124t311.5 124t155.5 300zM922 1325
q4 55 -31 90t-90 35q-57 0 -99.5 -35t-46.5 -90q-6 -55 29 -94t90 -39t98.5 39t49.5 94zM1010 1323q-8 -90 -82 -153.5t-164 -63.5t-149.5 63.5t-51.5 153.5q8 88 82 150.5t164 62.5t149.5 -62.5t51.5 -150.5z" />
    <glyph glyph-name="ae" unicode="&#xe6;" horiz-adv-x="2258" 
d="M1616 -31q-131 0 -233.5 59.5t-161.5 161.5l-19 -190h-131l21 207h-5q-182 -238 -454 -238q-227 0 -366.5 159t-114.5 386q23 225 195.5 383t400.5 158q274 0 403 -238h4l23 207h131l-21 -190q174 221 443 221q223 0 364 -158t119 -383q-2 -33 -12 -63h-951
q6 -152 112.5 -256.5t264.5 -104.5q119 0 225.5 59.5t169.5 159.5l91 -67q-86 -121 -220.5 -197t-277.5 -76zM1124 514q18 174 -93 297t-285.5 123t-308.5 -122t-152.5 -298t90 -300t282.5 -124t311.5 124t155.5 300zM1264 573h831q-8 152 -115.5 256.5t-263.5 104.5
q-158 0 -285.5 -103.5t-166.5 -257.5z" />
    <glyph glyph-name="ccedilla" unicode="&#xe7;" horiz-adv-x="1120" 
d="M1126 895l-94 -84q-111 123 -287 123q-174 0 -308 -123t-152 -297q-18 -176 90 -300t282 -124q176 0 312 125l78 -86q-180 -160 -402 -160q-20 0 -61 4l-29 -112q47 29 103.5 32t100.5 -42.5t36 -118.5q-8 -72 -63.5 -118t-129.5 -46t-117 45t-34 117h61q-4 -45 23.5 -76
t72.5 -31t80 31t39 76q6 53 -21.5 79.5t-74.5 26.5q-68 0 -94 -49l-60 4l53 191q-184 39 -291.5 188t-86.5 344q23 223 201.5 382t406 159t366.5 -160z" />
    <glyph glyph-name="egrave" unicode="&#xe8;" horiz-adv-x="1290" 
d="M1026 1389l-12 -115l-420 106l16 156zM1245 514q-4 -43 -10 -63h-959q6 -154 113 -257.5t264 -103.5q119 0 223.5 60.5t167.5 160.5l93 -69q-86 -121 -219.5 -197t-276.5 -76q-225 0 -368.5 160t-120.5 385q23 223 200.5 382t403 159t369 -159t120.5 -382zM289 573h831
q-8 152 -115.5 256.5t-263.5 104.5q-158 0 -285.5 -103.5t-166.5 -257.5z" />
    <glyph glyph-name="eacute" unicode="&#xe9;" horiz-adv-x="1290" 
d="M555 1274l12 115l445 147l-17 -156zM1245 514q-4 -43 -10 -63h-959q6 -154 113 -257.5t264 -103.5q119 0 223.5 60.5t167.5 160.5l93 -69q-86 -121 -219.5 -197t-276.5 -76q-225 0 -368.5 160t-120.5 385q23 223 200.5 382t403 159t369 -159t120.5 -382zM289 573h831
q-8 152 -115.5 256.5t-263.5 104.5q-158 0 -285.5 -103.5t-166.5 -257.5z" />
    <glyph glyph-name="ecircumflex" unicode="&#xea;" horiz-adv-x="1290" 
d="M1245 514q-4 -43 -10 -63h-959q6 -154 113 -257.5t264 -103.5q119 0 223.5 60.5t167.5 160.5l93 -69q-86 -121 -219.5 -197t-276.5 -76q-225 0 -368.5 160t-120.5 385q23 223 200.5 382t403 159t369 -159t120.5 -382zM289 573h831q-8 152 -115.5 256.5t-263.5 104.5
q-158 0 -285.5 -103.5t-166.5 -257.5zM860 1485l187 -244h-113l-146 135l-174 -135h-110l237 244h119z" />
    <glyph glyph-name="edieresis" unicode="&#xeb;" horiz-adv-x="1290" 
d="M1245 514q-4 -43 -10 -63h-959q6 -154 113 -257.5t264 -103.5q119 0 223.5 60.5t167.5 160.5l93 -69q-86 -121 -219.5 -197t-276.5 -76q-225 0 -368.5 160t-120.5 385q23 223 200.5 382t403 159t369 -159t120.5 -382zM289 573h831q-8 152 -115.5 256.5t-263.5 104.5
q-158 0 -285.5 -103.5t-166.5 -257.5zM481 1403q4 41 38 69.5t75 28.5t66.5 -28.5t21.5 -69.5q-2 -39 -36 -68.5t-75 -29.5t-67.5 28.5t-22.5 69.5zM899 1403q4 41 38 69.5t75 28.5t66.5 -28.5t21.5 -69.5q-2 -39 -36 -68.5t-75 -29.5t-67.5 28.5t-22.5 69.5z" />
    <glyph glyph-name="igrave" unicode="&#xec;" horiz-adv-x="425" 
d="M254 1024h131l-106 -1024h-132zM573 1389l-12 -115l-420 106l17 156z" />
    <glyph glyph-name="iacute" unicode="&#xed;" horiz-adv-x="425" 
d="M254 1024h131l-106 -1024h-132zM131 1274l12 115l445 147l-17 -156z" />
    <glyph glyph-name="icircumflex" unicode="&#xee;" horiz-adv-x="425" 
d="M254 1024h131l-106 -1024h-132zM426 1485l186 -244h-112l-146 135l-174 -135h-110l237 244h119z" />
    <glyph glyph-name="idieresis" unicode="&#xef;" horiz-adv-x="425" 
d="M254 1024h131l-106 -1024h-132zM82 1403q4 41 38 69.5t75 28.5t66.5 -28.5t21.5 -69.5q-2 -39 -36 -68.5t-75 -29.5t-67.5 28.5t-22.5 69.5zM434 1403q4 41 38 69.5t75 28.5t66.5 -28.5t21.5 -69.5q-2 -39 -36 -68.5t-75 -29.5t-67.5 28.5t-22.5 69.5z" />
    <glyph glyph-name="eth" unicode="&#xf0;" horiz-adv-x="1300" 
d="M549 1163l-51 68l149 115l-145 190h164l84 -113l149 117l51 -67l-151 -117l354 -484q123 -166 102 -358q-25 -225 -203 -385t-407 -160q-227 0 -372.5 160t-120.5 385q23 223 201.5 382t406.5 159q59 0 127 -19l-189 242zM657 90q174 0 309.5 124t153.5 300
q18 174 -91 297t-284 123q-172 0 -307 -123t-153.5 -297t91 -299t281.5 -125z" />
    <glyph glyph-name="ntilde" unicode="&#xf1;" horiz-adv-x="1163" 
d="M147 0l107 1024h131l-18 -172h4q45 78 149.5 140.5t218.5 62.5q190 0 284.5 -113t76.5 -297l-68 -645h-131l68 645q12 129 -57.5 209t-196.5 80q-129 0 -244 -90t-127 -213l-65 -631h-132zM637 1501q47 0 83 -21.5t54.5 -48t41 -48t42.5 -21.5q35 0 60.5 21.5t27.5 58.5
h107q-8 -80 -65.5 -133.5t-133.5 -53.5q-45 0 -81 21.5t-56.5 48.5t-43 48.5t-42.5 21.5q-35 0 -59.5 -23.5t-26.5 -60.5h-111q8 82 66.5 136t136.5 54z" />
    <glyph glyph-name="ograve" unicode="&#xf2;" horiz-adv-x="1300" 
d="M657 90q174 0 309.5 124t153.5 300q18 174 -91 297t-284 123q-172 0 -307 -123t-153.5 -297t91 -299t281.5 -125zM645 -31q-227 0 -372.5 160t-120.5 385q23 223 201.5 382t406.5 159q229 0 373.5 -158t121.5 -383q-25 -225 -203 -385t-407 -160zM1024 1389l-12 -115
l-420 106l16 156z" />
    <glyph glyph-name="oacute" unicode="&#xf3;" horiz-adv-x="1300" 
d="M657 90q174 0 309.5 124t153.5 300q18 174 -91 297t-284 123q-172 0 -307 -123t-153.5 -297t91 -299t281.5 -125zM645 -31q-227 0 -372.5 160t-120.5 385q23 223 201.5 382t406.5 159q229 0 373.5 -158t121.5 -383q-25 -225 -203 -385t-407 -160zM553 1274l12 115
l445 147l-17 -156z" />
    <glyph glyph-name="ocircumflex" unicode="&#xf4;" horiz-adv-x="1300" 
d="M864 1485l187 -244h-113l-145 135l-175 -135h-110l237 244h119zM657 90q174 0 309.5 124t153.5 300q18 174 -91 297t-284 123q-172 0 -307 -123t-153.5 -297t91 -299t281.5 -125zM645 -31q-227 0 -372.5 160t-120.5 385q23 223 201.5 382t406.5 159q229 0 373.5 -158
t121.5 -383q-25 -225 -203 -385t-407 -160z" />
    <glyph glyph-name="otilde" unicode="&#xf5;" horiz-adv-x="1300" 
d="M688 1501q47 0 83 -21.5t54.5 -48t41 -48t42.5 -21.5q35 0 60.5 21.5t27.5 58.5h107q-8 -80 -65.5 -133.5t-133.5 -53.5q-45 0 -81 21.5t-56 48.5t-43 48.5t-43 21.5q-35 0 -59.5 -23.5t-26.5 -60.5h-111q8 82 66.5 136t136.5 54zM657 90q174 0 309.5 124t153.5 300
q18 174 -91 297t-284 123q-172 0 -307 -123t-153.5 -297t91 -299t281.5 -125zM645 -31q-227 0 -372.5 160t-120.5 385q23 223 201.5 382t406.5 159q229 0 373.5 -158t121.5 -383q-25 -225 -203 -385t-407 -160z" />
    <glyph glyph-name="odieresis" unicode="&#xf6;" horiz-adv-x="1300" 
d="M485 1403q4 41 38 69.5t75 28.5t66.5 -28.5t21.5 -69.5q-2 -39 -36 -68.5t-74.5 -29.5t-67.5 28.5t-23 69.5zM903 1403q4 41 38 69.5t75 28.5t66.5 -28.5t21.5 -69.5q-2 -39 -36 -68.5t-75 -29.5t-67.5 28.5t-22.5 69.5zM657 90q174 0 309.5 124t153.5 300
q18 174 -91 297t-284 123q-172 0 -307 -123t-153.5 -297t91 -299t281.5 -125zM645 -31q-227 0 -372.5 160t-120.5 385q23 223 201.5 382t406.5 159q229 0 373.5 -158t121.5 -383q-25 -225 -203 -385t-407 -160z" />
    <glyph glyph-name="divide" unicode="&#xf7;" horiz-adv-x="1269" 
d="M532 86q0 41 31 70.5t72 29.5t71.5 -29.5t30.5 -70.5t-30.5 -70.5t-71.5 -29.5t-72 29.5t-31 70.5zM532 938q0 41 31 70.5t72 29.5t71.5 -29.5t30.5 -70.5t-30.5 -70.5t-71.5 -29.5t-72 29.5t-31 70.5zM1147 451h-1024v122h1024v-122z" />
    <glyph glyph-name="oslash" unicode="&#xf8;" horiz-adv-x="1316" 
d="M141 78l105 94q-106 147 -86 342q23 223 202 382t406 159q186 0 328 -115l104 94l78 -88l-102 -92q109 -156 88 -340q-25 -225 -203 -385t-408 -160q-190 0 -327 115l-105 -94zM666 90q174 0 309 124t153 300q14 133 -53 248l-651 -588q103 -84 242 -84zM293 514
q-14 -137 53 -252l649 588q-100 84 -241 84q-172 0 -307.5 -123t-153.5 -297z" />
    <glyph glyph-name="ugrave" unicode="&#xf9;" horiz-adv-x="1163" 
d="M1122 1024l-106 -1024h-131l16 174h-4q-45 -80 -149.5 -142.5t-217.5 -62.5q-190 0 -284 113t-76 297l68 645h131l-68 -645q-14 -129 55.5 -209t196.5 -80t242.5 91t130.5 212l65 631h131zM942 1389l-12 -115l-420 106l16 156z" />
    <glyph glyph-name="uacute" unicode="&#xfa;" horiz-adv-x="1163" 
d="M1122 1024l-106 -1024h-131l16 174h-4q-45 -80 -149.5 -142.5t-217.5 -62.5q-190 0 -284 113t-76 297l68 645h131l-68 -645q-14 -129 55.5 -209t196.5 -80t242.5 91t130.5 212l65 631h131zM483 1274l13 115l444 147l-16 -156z" />
    <glyph glyph-name="ucircumflex" unicode="&#xfb;" horiz-adv-x="1163" 
d="M1122 1024l-106 -1024h-131l16 174h-4q-45 -80 -149.5 -142.5t-217.5 -62.5q-190 0 -284 113t-76 297l68 645h131l-68 -645q-14 -129 55.5 -209t196.5 -80t242.5 91t130.5 212l65 631h131zM786 1485l187 -244h-113l-145 135l-174 -135h-111l238 244h118z" />
    <glyph glyph-name="udieresis" unicode="&#xfc;" horiz-adv-x="1163" 
d="M1122 1024l-106 -1024h-131l16 174h-4q-45 -80 -149.5 -142.5t-217.5 -62.5q-190 0 -284 113t-76 297l68 645h131l-68 -645q-14 -129 55.5 -209t196.5 -80t242.5 91t130.5 212l65 631h131zM410 1403q4 41 37.5 69.5t74.5 28.5t66.5 -28.5t21.5 -69.5q-2 -39 -35.5 -68.5
t-74.5 -29.5t-67.5 28.5t-22.5 69.5zM827 1403q4 41 38 69.5t75 28.5t66.5 -28.5t21.5 -69.5q-2 -39 -36 -68.5t-74.5 -29.5t-67.5 28.5t-23 69.5z" />
    <glyph glyph-name="yacute" unicode="&#xfd;" horiz-adv-x="1056" 
d="M463 12l-316 1012h138l262 -848l438 848h137l-798 -1536h-138zM438 1274l13 115l444 147l-16 -156z" />
    <glyph glyph-name="thorn" unicode="&#xfe;" horiz-adv-x="1349" 
d="M438 1536l-76 -719h5q182 238 454 238q227 0 366.5 -158t117.5 -385q-25 -225 -199 -384t-399 -159q-272 0 -404 238h-4l-76 -719h-131l215 2048h131zM332 512q-18 -174 91 -298t283.5 -124t309.5 123t153.5 299t-90 299t-284.5 123q-174 0 -309.5 -123t-153.5 -299z" />
    <glyph glyph-name="ydieresis" unicode="&#xff;" horiz-adv-x="1056" 
d="M364.5 1403q4.5 41 38 69.5t74.5 28.5t66.5 -28.5t21.5 -69.5q-2 -39 -35.5 -68.5t-74.5 -29.5t-68 28.5t-22.5 69.5zM782 1403q4 41 38 69.5t75 28.5t66.5 -28.5t21.5 -69.5q-2 -39 -36 -68.5t-75 -29.5t-67.5 28.5t-22.5 69.5zM463 12l-316 1012h138l262 -848l438 848
h137l-798 -1536h-138z" />
    <glyph glyph-name="Amacron" unicode="&#x100;" horiz-adv-x="1359" 
d="M1059 1694l-12 -119h-406l12 119h406zM842 1546l477 -1546h-137l-103 334h-729l-172 -334h-137zM807 1221l-395 -764h628z" />
    <glyph glyph-name="amacron" unicode="&#x101;" horiz-adv-x="1349" 
d="M1008 1485l-13 -119h-405l12 119h406zM1071 0l21 207h-5q-182 -238 -454 -238q-227 0 -366.5 159t-114.5 386q23 225 195.5 383t400.5 158q274 0 403 -238h4l23 207h131l-107 -1024h-131zM1124 514q18 174 -93 297t-285.5 123t-308.5 -122t-152.5 -298t90 -300
t282.5 -124t311.5 124t155.5 300z" />
    <glyph glyph-name="Aogonek" unicode="&#x104;" horiz-adv-x="1359" 
d="M1059 -129q-6 -53 26.5 -90t85.5 -37q55 0 99 37l-8 -92q-61 -49 -140 -49q-86 0 -139 60t-43 146t73.5 145.5t149.5 61.5l-84 281h-729l-172 -334h-137l801 1546l477 -1546h-119q-53 0 -94 -38t-47 -91zM807 1221l-395 -764h628z" />
    <glyph glyph-name="aogonek" unicode="&#x105;" horiz-adv-x="1349" 
d="M1007.5 -129q-6.5 -53 26.5 -90t86 -37q55 0 99 37l-9 -92q-61 -49 -139 -49q-86 0 -139 60t-43 146q8 76 60 132.5t126 70.5l17 158h-5q-182 -238 -454 -238q-227 0 -366.5 159t-114.5 386q23 225 195.5 383t400.5 158q274 0 403 -238h4l23 207h131l-107 -1024h-53
q-53 0 -94 -38t-47.5 -91zM1124 514q18 174 -93 297t-285.5 123t-308.5 -122t-152.5 -298t90 -300t282.5 -124t311.5 124t155.5 300z" />
    <glyph glyph-name="Cacute" unicode="&#x106;" horiz-adv-x="1536" 
d="M311.5 741.5q-28.5 -270.5 141.5 -461t440 -190.5t481 191l80 -93q-250 -219 -573 -219q-330 0 -535 225.5t-170 547t286 548t580 226.5q324 0 531 -220l-103 -92q-174 190 -440 191q-270 0 -480 -191.5t-238.5 -462zM819 1556l12 115l447 148l-16 -156z" />
    <glyph glyph-name="cacute" unicode="&#x107;" horiz-adv-x="1120" 
d="M1126 895l-94 -84q-111 123 -287 123q-174 0 -308 -123t-152 -297q-18 -176 90 -300t282 -124q176 0 312 125l78 -86q-180 -160 -402 -160q-227 0 -372.5 160t-120.5 385q23 223 201.5 382t406 159t366.5 -160zM555 1274l12 115l445 147l-17 -156z" />
    <glyph glyph-name="Ccaron" unicode="&#x10c;" horiz-adv-x="1536" 
d="M311.5 741.5q-28.5 -270.5 141.5 -461t440 -190.5t481 191l80 -93q-250 -219 -573 -219q-330 0 -535 225.5t-170 547t286 548t580 226.5q324 0 531 -220l-103 -92q-174 190 -440 191q-270 0 -480 -191.5t-238.5 -462zM1348 1815l-240 -244h-119l-184 244h110l146 -136
l174 136h113z" />
    <glyph glyph-name="ccaron" unicode="&#x10d;" horiz-adv-x="1120" 
d="M1126 895l-94 -84q-111 123 -287 123q-174 0 -308 -123t-152 -297q-18 -176 90 -300t282 -124q176 0 312 125l78 -86q-180 -160 -402 -160q-227 0 -372.5 160t-120.5 385q23 223 201.5 382t406 159t366.5 -160zM1077 1485l-239 -244h-119l-184 244h110l146 -135l174 135
h112z" />
    <glyph glyph-name="Dcaron" unicode="&#x10e;" horiz-adv-x="1488" 
d="M1163 1815l-239 -244h-119l-184 244h110l146 -136l174 136h112zM1468.5 743.5q-32.5 -309.5 -260 -526.5t-532.5 -217h-529l156 1485h528q305 0 487.5 -216t150 -525.5zM1333 743q27 260 -118.5 439.5t-397.5 179.5h-397l-129 -1239h397q252 0 434 180t211 440z" />
    <glyph glyph-name="dcaron" unicode="&#x10f;" horiz-adv-x="1542" 
d="M1071 0l21 207h-5q-182 -238 -454 -238q-227 0 -366.5 159t-114.5 386q23 225 195.5 383t400.5 158q274 0 403 -238h4l76 719h131l-160 -1536h-131zM1124 514q18 174 -93 297t-285.5 123t-308.5 -122t-152.5 -298t90 -300t282.5 -124t311.5 124t155.5 300zM1499 1171h-96
l127 365h131z" />
    <glyph glyph-name="Dcroat" unicode="&#x110;" horiz-adv-x="1515" 
d="M1495 743.5q-33 -309.5 -260 -526.5t-533 -217h-528l70 682h-125l14 123h125l72 680h528q305 0 487.5 -216t149.5 -525.5zM688 682h-313l-58 -559h398q252 0 434 180t211 440q27 260 -118.5 439.5t-397.5 179.5h-398l-57 -557h313z" />
    <glyph glyph-name="dcroat" unicode="&#x111;" horiz-adv-x="1411" 
d="M1065 1233l12 123h135l19 180h131l-19 -180h136l-13 -123h-135l-129 -1233h-131l21 207h-5q-182 -238 -454 -238q-227 0 -366.5 159t-114.5 386q23 225 195.5 383t400.5 158q274 0 403 -238h4l45 416h-135zM1124 514q18 174 -93 297t-285.5 123t-308.5 -122t-152.5 -298
t90 -300t282.5 -124t311.5 124t155.5 300z" />
    <glyph glyph-name="Emacron" unicode="&#x112;" horiz-adv-x="1280" 
d="M291 123h903l-12 -123h-1035l156 1485h1034l-14 -123h-903l-58 -557h768l-14 -123h-768zM1044 1694l-12 -119h-405l12 119h405z" />
    <glyph glyph-name="emacron" unicode="&#x113;" horiz-adv-x="1290" 
d="M1245 514q-4 -43 -10 -63h-959q6 -154 113 -257.5t264 -103.5q119 0 223.5 60.5t167.5 160.5l93 -69q-86 -121 -219.5 -197t-276.5 -76q-225 0 -368.5 160t-120.5 385q23 223 200.5 382t403 159t369 -159t120.5 -382zM289 573h831q-8 152 -115.5 256.5t-263.5 104.5
q-158 0 -285.5 -103.5t-166.5 -257.5zM1004 1485l-13 -119h-405l12 119h406z" />
    <glyph glyph-name="Edotaccent" unicode="&#x116;" horiz-adv-x="1280" 
d="M963 1659q-6 -49 -47.5 -86t-90.5 -37q-47 0 -79.5 37t-26.5 86q4 49 45 86t88 37q49 0 82 -37t29 -86zM291 123h903l-12 -123h-1035l156 1485h1034l-14 -123h-903l-58 -557h768l-14 -123h-768z" />
    <glyph glyph-name="edotaccent" unicode="&#x117;" horiz-adv-x="1290" 
d="M1245 514q-4 -43 -10 -63h-959q6 -154 113 -257.5t264 -103.5q119 0 223.5 60.5t167.5 160.5l93 -69q-86 -121 -219.5 -197t-276.5 -76q-225 0 -368.5 160t-120.5 385q23 223 200.5 382t403 159t369 -159t120.5 -382zM289 573h831q-8 152 -115.5 256.5t-263.5 104.5
q-158 0 -285.5 -103.5t-166.5 -257.5zM911 1378q-4 -49 -45 -86t-90 -37q-47 0 -79.5 37t-28.5 86q6 49 47 86t88 37q49 0 81.5 -37t26.5 -86z" />
    <glyph glyph-name="Eogonek" unicode="&#x118;" horiz-adv-x="1280" 
d="M946 -129q-6 -53 27 -90t86 -37q55 0 98 37l-8 -92q-61 -49 -139 -49q-86 0 -139.5 60t-43.5 146q10 94 82 154h-762l156 1485h1034l-14 -123h-903l-58 -557h768l-14 -123h-768l-57 -559h903l-12 -123h-95q-53 0 -94 -38t-47 -91z" />
    <glyph glyph-name="eogonek" unicode="&#x119;" horiz-adv-x="1290" 
d="M1245 514q-4 -43 -10 -63h-959q6 -154 113 -257.5t264 -103.5q119 0 223.5 60.5t167.5 160.5l93 -69q-133 -190 -344 -250q-82 -27 -93 -121q-6 -53 27 -90t86 -37q55 0 98 37l-8 -92q-61 -49 -139 -49q-86 0 -139.5 60t-42.5 146q6 68 51 123q-223 2 -363.5 162
t-118 383t200.5 382t403.5 159t369 -159t120.5 -382zM289 573h831q-8 152 -115.5 256.5t-263.5 104.5q-158 0 -285.5 -103.5t-166.5 -257.5z" />
    <glyph glyph-name="Ecaron" unicode="&#x11a;" horiz-adv-x="1280" 
d="M291 123h903l-12 -123h-1035l156 1485h1034l-14 -123h-903l-58 -557h768l-14 -123h-768zM1128 1815l-239 -244h-119l-184 244h110l146 -136l174 136h112z" />
    <glyph glyph-name="ecaron" unicode="&#x11b;" horiz-adv-x="1290" 
d="M1245 514q-4 -43 -10 -63h-959q6 -154 113 -257.5t264 -103.5q119 0 223.5 60.5t167.5 160.5l93 -69q-86 -121 -219.5 -197t-276.5 -76q-225 0 -368.5 160t-120.5 385q23 223 200.5 382t403 159t369 -159t120.5 -382zM289 573h831q-8 152 -115.5 256.5t-263.5 104.5
q-158 0 -285.5 -103.5t-166.5 -257.5zM1073 1485l-239 -244h-119l-185 244h111l145 -135l175 135h112z" />
    <glyph glyph-name="uni0122" unicode="&#x122;" horiz-adv-x="1601" 
d="M1563 805l-62 -574q-123 -123 -283.5 -192.5t-336.5 -69.5q-330 0 -535 225.5t-170 547t286 548t580 226.5q324 0 531 -220l-103 -92q-174 190 -440 191q-270 0 -480 -191.5t-238.5 -462t141.5 -461t440 -190.5t483 193l41 399h-463l15 123h594zM797 -410q78 0 84 76
l8 78q-16 -6 -33 -6q-41 0 -68.5 29.5t-23.5 70.5t38 71t75 30t68.5 -30t23.5 -71l-19 -172q-14 -135 -159 -135h-23l6 59h23z" />
    <glyph glyph-name="uni0123" unicode="&#x123;" horiz-adv-x="1347" 
d="M1059 -74l26 269q-78 -98 -193.5 -162t-248.5 -64q-227 0 -371.5 160t-119.5 385q23 223 200.5 382t405.5 159q266 0 395 -238l23 207h131l-115 -1098q-27 -240 -189.5 -354.5t-412.5 -114.5q-231 0 -410 113l70 100q154 -96 352 -96q195 0 316 76.5t141 275.5zM1122 514
q18 174 -93 297t-286 123q-172 0 -306 -123t-152 -297q-18 -176 90 -300t280 -124q174 0 311.5 124t155.5 300zM868 1495h-22q-76 0 -84 -76l-8 -78q18 6 34 7q41 0 69 -30t24 -71t-39 -70.5t-76 -29.5t-67.5 29.5t-22.5 70.5l16 172q16 135 160 135h22z" />
    <glyph glyph-name="Imacron" unicode="&#x12a;" horiz-adv-x="425" 
d="M147 0l156 1485h131l-155 -1485h-132zM592 1694l-12 -119h-406l12 119h406z" />
    <glyph glyph-name="imacron" unicode="&#x12b;" horiz-adv-x="425" 
d="M254 1024h131l-106 -1024h-132zM571 1485l-12 -119h-405l12 119h405z" />
    <glyph glyph-name="Iogonek" unicode="&#x12e;" horiz-adv-x="425" 
d="M137 -129q-6 -53 27 -90t86 -37q29 0 55 10l-10 -94q-43 -20 -94 -20q-86 0 -139.5 60t-43.5 146q6 61 42 110.5t90 74.5l153 1454h131l-155 -1485q-53 0 -94.5 -38t-47.5 -91z" />
    <glyph glyph-name="iogonek" unicode="&#x12f;" horiz-adv-x="425" 
d="M137 -129q-6 -53 27 -90t86 -37q29 0 55 10l-10 -94q-43 -20 -94 -20q-86 0 -139.5 60t-43.5 146q6 61 42 110.5t90 74.5l104 993h131l-106 -1024q-53 0 -94.5 -38t-47.5 -91zM276 1462q2 37 32 63.5t67 26.5t61.5 -26.5t20.5 -63.5q-4 -39 -34 -64.5t-67 -25.5
t-60.5 25.5t-19.5 64.5z" />
    <glyph glyph-name="dotlessi" unicode="&#x131;" horiz-adv-x="425" 
d="M254 1024h131l-106 -1024h-132z" />
    <glyph glyph-name="uni0136" unicode="&#x136;" horiz-adv-x="1249" 
d="M528 -379q76 0 84 76l9 78q-14 -6 -33 -6q-41 0 -68.5 29.5t-23.5 70.5t37.5 70.5t74.5 29.5t69 -29.5t23 -70.5l-18 -172q-14 -135 -160 -135h-22l6 59h22zM147 0l156 1485h131l-96 -912l860 912h166l-700 -744l544 -741h-166l-473 643l-252 -266l-38 -377h-132z" />
    <glyph glyph-name="uni0137" unicode="&#x137;" horiz-adv-x="993" 
d="M395 422l-82 -76l-34 -346h-132l160 1536h131l-106 -1014l551 502h180l-567 -510l460 -514h-180zM422 -379q76 0 84 76l8 78q-16 -6 -33 -6q-41 0 -68.5 29.5t-23.5 70.5t38 70.5t75 29.5t68.5 -29.5t23.5 -70.5l-19 -172q-14 -135 -159 -135h-23l6 59h23z" />
    <glyph glyph-name="Lacute" unicode="&#x139;" horiz-adv-x="1159" 
d="M1130 123l-12 -123h-971l156 1485h131l-143 -1362h839zM600 1556l12 115l447 148l-17 -156z" />
    <glyph glyph-name="lacute" unicode="&#x13a;" horiz-adv-x="425" 
d="M160 1556l12 115l446 148l-16 -156zM147 0l160 1536h131l-159 -1536h-132z" />
    <glyph glyph-name="uni013B" unicode="&#x13b;" horiz-adv-x="1159" 
d="M1130 123l-12 -123h-971l156 1485h131l-143 -1362h839zM549 -379q76 0 84 76l8 78q-14 -6 -33 -6q-41 0 -68.5 29.5t-23.5 70.5t38 70.5t75 29.5t68.5 -29.5t23.5 -70.5l-19 -172q-14 -135 -159 -135h-23l6 59h23z" />
    <glyph glyph-name="uni013C" unicode="&#x13c;" horiz-adv-x="425" 
d="M147 0l160 1536h131l-159 -1536h-132zM129 -379q76 0 84 76l8 78q-16 -6 -33 -6q-41 0 -68.5 29.5t-23.5 70.5t38 70.5t75 29.5t68.5 -29.5t23.5 -70.5l-18 -172q-14 -135 -160 -135h-23l6 59h23z" />
    <glyph glyph-name="Lcaron" unicode="&#x13d;" horiz-adv-x="1159" 
d="M1130 123l-12 -123h-971l156 1485h131l-143 -1362h839zM1116 1171h-96l127 365h131z" />
    <glyph glyph-name="lcaron" unicode="&#x13e;" horiz-adv-x="618" 
d="M575 1171h-96l127 365h131zM147 0l160 1536h131l-159 -1536h-132z" />
    <glyph glyph-name="Lslash" unicode="&#x141;" horiz-adv-x="1206" 
d="M1178 123l-13 -123h-970l65 631l-123 -25l13 123l122 25l78 731h131l-73 -703l507 107l-12 -121l-510 -109l-55 -536h840z" />
    <glyph glyph-name="lslash" unicode="&#x142;" horiz-adv-x="491" 
d="M180 0l72 692l-117 -26l12 122l117 27l76 721h131l-72 -690l117 26l-12 -122l-117 -27l-76 -723h-131z" />
    <glyph glyph-name="Nacute" unicode="&#x143;" horiz-adv-x="1441" 
d="M653 1556l13 115l446 148l-16 -156zM1286 -61l-883 1251l-124 -1190h-132l162 1546l885 -1251l125 1192h131z" />
    <glyph glyph-name="nacute" unicode="&#x144;" horiz-adv-x="1163" 
d="M147 0l107 1024h131l-18 -172h4q45 78 149.5 140.5t218.5 62.5q190 0 284.5 -113t76.5 -297l-68 -645h-131l68 645q12 129 -57.5 209t-196.5 80q-129 0 -244 -90t-127 -213l-65 -631h-132zM508 1274l12 115l445 147l-17 -156z" />
    <glyph glyph-name="uni0145" unicode="&#x145;" horiz-adv-x="1441" 
d="M637 -379q76 0 84 76l8 78q-14 -6 -33 -6q-41 0 -68.5 29.5t-23.5 70.5t38 70.5t75 29.5t68.5 -29.5t23.5 -70.5l-18 -172q-14 -135 -160 -135h-23l6 59h23zM1286 -61l-883 1251l-124 -1190h-132l162 1546l885 -1251l125 1192h131z" />
    <glyph glyph-name="uni0146" unicode="&#x146;" horiz-adv-x="1163" 
d="M506 -379q76 0 84 76l8 78q-16 -6 -33 -6q-41 0 -68.5 29.5t-23.5 70.5t38 70.5t75 29.5t68.5 -29.5t23.5 -70.5l-19 -172q-14 -135 -159 -135h-23l6 59h23zM147 0l107 1024h131l-18 -172h4q45 78 149.5 140.5t218.5 62.5q190 0 284.5 -113t76.5 -297l-68 -645h-131
l68 645q12 129 -57.5 209t-196.5 80q-129 0 -244 -90t-127 -213l-65 -631h-132z" />
    <glyph glyph-name="Ncaron" unicode="&#x147;" horiz-adv-x="1441" 
d="M1184 1815l-240 -244h-119l-184 244h111l145 -136l174 136h113zM1286 -61l-883 1251l-124 -1190h-132l162 1546l885 -1251l125 1192h131z" />
    <glyph glyph-name="ncaron" unicode="&#x148;" horiz-adv-x="1163" 
d="M147 0l107 1024h131l-18 -172h4q45 78 149.5 140.5t218.5 62.5q190 0 284.5 -113t76.5 -297l-68 -645h-131l68 645q12 129 -57.5 209t-196.5 80q-129 0 -244 -90t-127 -213l-65 -631h-132zM1047 1485l-240 -244h-119l-184 244h110l146 -135l174 135h113z" />
    <glyph glyph-name="Omacron" unicode="&#x14c;" horiz-adv-x="1769" 
d="M311.5 741.5q-28.5 -270.5 141.5 -461t440 -190.5t481 190.5t239.5 461t-142.5 462t-441 191.5t-480 -191.5t-238.5 -462zM176 741.5q35 321.5 286 548t580.5 226.5t535.5 -226.5t171 -548t-287 -547t-581.5 -225.5t-534.5 225.5t-170 547zM1264 1694l-13 -119h-405
l12 119h406z" />
    <glyph glyph-name="omacron" unicode="&#x14d;" horiz-adv-x="1300" 
d="M1008 1485l-13 -119h-405l12 119h406zM657 90q174 0 309.5 124t153.5 300q18 174 -91 297t-284 123q-172 0 -307 -123t-153.5 -297t91 -299t281.5 -125zM645 -31q-227 0 -372.5 160t-120.5 385q23 223 201.5 382t406.5 159q229 0 373.5 -158t121.5 -383
q-25 -225 -203 -385t-407 -160z" />
    <glyph glyph-name="Ohungarumlaut" unicode="&#x150;" horiz-adv-x="1765" 
d="M311.5 741.5q-28.5 -270.5 141.5 -461t440 -190.5t481 190.5t239.5 461t-142.5 462t-441 191.5t-480 -191.5t-238.5 -462zM176 741.5q35 321.5 286 548t580.5 226.5t535.5 -226.5t171 -548t-287 -547t-581.5 -225.5t-534.5 225.5t-170 547zM971 1571h-127l178 244h127z
M1176 1571h-127l178 244h127z" />
    <glyph glyph-name="ohungarumlaut" unicode="&#x151;" horiz-adv-x="1300" 
d="M657 90q174 0 309.5 124t153.5 300q18 174 -91 297t-284 123q-172 0 -307 -123t-153.5 -297t91 -299t281.5 -125zM645 -31q-227 0 -372.5 160t-120.5 385q23 223 201.5 382t406.5 159q229 0 373.5 -158t121.5 -383q-25 -225 -203 -385t-407 -160zM709 1241h-127l178 244
h127zM913 1241h-127l179 244h127z" />
    <glyph glyph-name="OE" unicode="&#x152;" horiz-adv-x="2668" 
d="M1679 123h904l-13 -123h-1034l35 336q-121 -170 -302.5 -268.5t-387.5 -98.5q-330 0 -535 225.5t-170 547t286 548t580 226.5q207 0 368 -100.5t245 -268.5l37 338h1034l-14 -123h-904l-57 -557h768l-14 -123h-768zM311.5 741.5q-28.5 -270.5 141.5 -461t440 -190.5
t481 190.5t239.5 461t-142.5 462t-441 191.5t-480 -191.5t-238.5 -462z" />
    <glyph glyph-name="oe" unicode="&#x153;" horiz-adv-x="2260" 
d="M2216 514q-2 -33 -12 -63h-957q6 -154 111.5 -257.5t263.5 -103.5q119 0 223.5 59.5t169.5 161.5l92 -69q-88 -123 -220 -198t-277 -75q-158 0 -278 86t-169 228q-80 -141 -220 -227.5t-298 -86.5q-227 0 -372.5 160t-120.5 385q23 223 201.5 382t406.5 159
q158 0 279.5 -86t172.5 -228q76 139 215.5 226.5t296.5 87.5q227 0 371 -158t121 -383zM657 90q174 0 309.5 124t153.5 300q18 174 -91 297t-284 123q-172 0 -307 -123t-153.5 -297t91 -299t281.5 -125zM1260 573h829q-8 154 -114.5 257.5t-264.5 103.5t-284.5 -103.5
t-165.5 -257.5z" />
    <glyph glyph-name="Racute" unicode="&#x154;" horiz-adv-x="1320" 
d="M1044 0l-215 537h-495l-55 -537h-132l156 1485h594q199 0 325 -138.5t105 -334.5q-14 -154 -115.5 -276t-248.5 -171l225 -565h-144zM1192 1011.5q16 147.5 -74 249t-235 101.5h-463l-74 -703h463q145 0 256 102.5t127 250zM580 1556l12 115l446 148l-16 -156z" />
    <glyph glyph-name="racute" unicode="&#x155;" horiz-adv-x="708" 
d="M664 1055q51 0 116 -21l-51 -116q-41 12 -80 12q-115 0 -204 -86t-99 -201l-67 -643h-132l107 1024h131l-16 -150h4q45 76 123 128.5t168 52.5zM313 1274l13 115l444 147l-16 -156z" />
    <glyph glyph-name="uni0156" unicode="&#x156;" horiz-adv-x="1320" 
d="M1044 0l-215 537h-495l-55 -537h-132l156 1485h594q199 0 325 -138.5t105 -334.5q-14 -154 -115.5 -276t-248.5 -171l225 -565h-144zM1192 1011.5q16 147.5 -74 249t-235 101.5h-463l-74 -703h463q145 0 256 102.5t127 250zM545 -379q76 0 84 76l8 78q-16 -6 -33 -6
q-41 0 -68.5 29.5t-23.5 70.5t38 70.5t75 29.5t68.5 -29.5t23.5 -70.5l-19 -172q-14 -135 -159 -135h-23l6 59h23z" />
    <glyph glyph-name="uni0157" unicode="&#x157;" horiz-adv-x="708" 
d="M664 1055q51 0 116 -21l-51 -116q-41 12 -80 12q-115 0 -204 -86t-99 -201l-67 -643h-132l107 1024h131l-16 -150h4q45 76 123 128.5t168 52.5zM309 -379q76 0 84 76l8 78q-16 -6 -32 -6q-41 0 -69 29.5t-23.5 70.5t38 70.5t74.5 29.5t68.5 -29.5t23.5 -70.5l-18 -172
q-14 -135 -160 -135h-22l6 59h22z" />
    <glyph glyph-name="Rcaron" unicode="&#x158;" horiz-adv-x="1320" 
d="M1044 0l-215 537h-495l-55 -537h-132l156 1485h594q199 0 325 -138.5t105 -334.5q-14 -154 -115.5 -276t-248.5 -171l225 -565h-144zM1192 1011.5q16 147.5 -74 249t-235 101.5h-463l-74 -703h463q145 0 256 102.5t127 250zM1122 1815l-239 -244h-119l-184 244h110
l146 -136l174 136h112z" />
    <glyph glyph-name="rcaron" unicode="&#x159;" horiz-adv-x="708" 
d="M664 1055q51 0 116 -21l-51 -116q-41 12 -80 12q-115 0 -204 -86t-99 -201l-67 -643h-132l107 1024h131l-16 -150h4q45 76 123 128.5t168 52.5zM829 1485l-239 -244h-119l-184 244h110l146 -135l174 135h112z" />
    <glyph glyph-name="Sacute" unicode="&#x15a;" horiz-adv-x="1208" 
d="M1202 1389l-82 -101q-162 113 -368 113q-143 0 -250 -79t-119 -200q-10 -90 31 -147t112.5 -85t159.5 -46.5t175 -44t156.5 -66.5t107.5 -125t26 -209q-20 -190 -179 -312t-370 -122q-299 0 -491 164l82 102q180 -145 421 -145q154 0 270.5 86t131.5 227q10 100 -30 165
t-110.5 95.5t-158.5 51t-175 44t-158 60.5t-109.5 115t-26.5 192q18 170 168.5 285t349.5 115q250 0 436 -133zM539 1556l12 115l446 148l-16 -156z" />
    <glyph glyph-name="sacute" unicode="&#x15b;" horiz-adv-x="1026" 
d="M106 80l76 106q152 -96 330 -96q135 0 217 53.5t92 143.5t-55.5 134t-164.5 58.5t-197.5 32.5t-161 84t-49.5 186q12 129 135 202t286 73q221 0 379 -101l-69 -104q-139 84 -322 84q-117 0 -192.5 -42t-81.5 -108q-8 -74 38 -114.5t120.5 -51t161.5 -28t160 -40t117 -92
t31 -179.5q-16 -141 -140 -226.5t-316 -85.5q-238 0 -394 111zM410 1274l12 115l444 147l-16 -156z" />
    <glyph glyph-name="Scaron" unicode="&#x160;" horiz-adv-x="1208" 
d="M1202 1389l-82 -101q-162 113 -368 113q-143 0 -250 -79t-119 -200q-10 -90 31 -147t112.5 -85t159.5 -46.5t175 -44t156.5 -66.5t107.5 -125t26 -209q-20 -190 -179 -312t-370 -122q-299 0 -491 164l82 102q180 -145 421 -145q154 0 270.5 86t131.5 227q10 100 -30 165
t-110.5 95.5t-158.5 51t-175 44t-158 60.5t-109.5 115t-26.5 192q18 170 168.5 285t349.5 115q250 0 436 -133zM1069 1815l-240 -244h-118l-185 244h111l145 -136l174 136h113z" />
    <glyph glyph-name="scaron" unicode="&#x161;" horiz-adv-x="1026" 
d="M106 80l76 106q152 -96 330 -96q135 0 217 53.5t92 143.5t-55.5 134t-164.5 58.5t-197.5 32.5t-161 84t-49.5 186q12 129 135 202t286 73q221 0 379 -101l-69 -104q-139 84 -322 84q-117 0 -192.5 -42t-81.5 -108q-8 -74 38 -114.5t120.5 -51t161.5 -28t160 -40t117 -92
t31 -179.5q-16 -141 -140 -226.5t-316 -85.5q-238 0 -394 111zM932 1485l-240 -244h-119l-184 244h111l145 -135l174 135h113z" />
    <glyph glyph-name="Tcaron" unicode="&#x164;" horiz-adv-x="1183" 
d="M1053 1815l-240 -244h-119l-184 244h111l145 -136l174 136h113zM1284 1362h-485l-142 -1362h-131l142 1362h-486l15 123h1101z" />
    <glyph glyph-name="tcaron" unicode="&#x165;" horiz-adv-x="808" 
d="M782 1171h-96l127 365h131zM156 1024h120l35 334h131l-34 -334h213l-13 -121h-213l-73 -704q-12 -109 98 -109q39 0 80 27l32 -111q-63 -37 -124 -37q-104 0 -167 58.5t-53 167.5l76 708h-121z" />
    <glyph glyph-name="Umacron" unicode="&#x16a;" horiz-adv-x="1441" 
d="M1100 1694l-13 -119h-405l12 119h406zM716.5 -31q-239.5 0 -390 157t-125.5 390l102 969h131l-102 -969q-20 -184 95.5 -305t301.5 -121t326.5 121t161.5 305l102 969h131l-102 -969q-25 -233 -208.5 -390t-423 -157z" />
    <glyph glyph-name="umacron" unicode="&#x16b;" horiz-adv-x="1163" 
d="M1122 1024l-106 -1024h-131l16 174h-4q-45 -80 -149.5 -142.5t-217.5 -62.5q-190 0 -284 113t-76 297l68 645h131l-68 -645q-14 -129 55.5 -209t196.5 -80t242.5 91t130.5 212l65 631h131zM932 1485l-12 -119h-406l12 119h406z" />
    <glyph glyph-name="Uring" unicode="&#x16e;" horiz-adv-x="1441" 
d="M1024 1620q4 55 -31 90t-90 35q-57 0 -99 -35t-46 -90q-6 -55 28.5 -94t90 -39t98.5 39t49 94zM1114 1618q-10 -90 -84 -153.5t-164 -63.5t-149.5 63.5t-48.5 153.5q8 88 80.5 150.5t162.5 62.5t150.5 -62.5t52.5 -150.5zM716.5 -31q-239.5 0 -390 157t-125.5 390
l102 969h131l-102 -969q-20 -184 95.5 -305t301.5 -121t326.5 121t161.5 305l102 969h131l-102 -969q-25 -233 -208.5 -390t-423 -157z" />
    <glyph glyph-name="uring" unicode="&#x16f;" horiz-adv-x="1163" 
d="M846 1325q4 55 -31 90t-90 35q-57 0 -99 -35t-46 -90q-6 -55 28.5 -94t90 -39t98.5 39t49 94zM934 1323q-8 -90 -82 -153.5t-164 -63.5t-149.5 63.5t-51.5 153.5q8 88 82 150.5t164 62.5t149.5 -62.5t51.5 -150.5zM1122 1024l-106 -1024h-131l16 174h-4
q-45 -80 -149.5 -142.5t-217.5 -62.5q-190 0 -284 113t-76 297l68 645h131l-68 -645q-14 -129 55.5 -209t196.5 -80t242.5 91t130.5 212l65 631h131z" />
    <glyph glyph-name="Uhungarumlaut" unicode="&#x170;" horiz-adv-x="1441" 
d="M716.5 -31q-239.5 0 -390 157t-125.5 390l102 969h131l-102 -969q-20 -184 95.5 -305t301.5 -121t326.5 121t161.5 305l102 969h131l-102 -969q-25 -233 -208.5 -390t-423 -157zM815 1571h-127l178 244h127zM1020 1571h-127l178 244h127z" />
    <glyph glyph-name="uhungarumlaut" unicode="&#x171;" horiz-adv-x="1163" 
d="M616 1241h-127l179 244h127zM821 1241h-127l178 244h127zM1122 1024l-106 -1024h-131l16 174h-4q-45 -80 -149.5 -142.5t-217.5 -62.5q-190 0 -284 113t-76 297l68 645h131l-68 -645q-14 -129 55.5 -209t196.5 -80t242.5 91t130.5 212l65 631h131z" />
    <glyph glyph-name="Uogonek" unicode="&#x172;" horiz-adv-x="1441" 
d="M717 -31q-240 0 -390.5 157t-125.5 390l102 969h131l-102 -969q-20 -184 95.5 -305t301.5 -121t326.5 121t161.5 305l102 969h131l-102 -969q-20 -186 -143.5 -326.5t-303.5 -193.5q-43 -12 -73.5 -47t-34.5 -78q-6 -53 26.5 -90t85.5 -37q55 0 99 37l-9 -92
q-61 -49 -139 -49q-86 0 -139 60t-43 146q6 68 51 123h-8z" />
    <glyph glyph-name="uogonek" unicode="&#x173;" horiz-adv-x="1163" 
d="M821 -129q-6 -53 27 -90t86 -37q55 0 98 37l-8 -92q-61 -49 -139 -49q-86 0 -139.5 60t-43.5 146q14 135 187 203l12 125h-4q-45 -80 -149.5 -142.5t-217.5 -62.5q-190 0 -284 113t-76 297l68 645h131l-68 -645q-14 -129 55.5 -209t196.5 -80t242.5 91t130.5 212l65 631
h131l-106 -1024h-64q-51 -2 -89 -40t-42 -89z" />
    <glyph glyph-name="Ydieresis" unicode="&#x178;" horiz-adv-x="1349" 
d="M536.5 1655q4.5 41 37 69.5t73.5 28.5t67.5 -28.5t22.5 -69.5q-2 -39 -35.5 -69t-74.5 -30t-68 29t-22.5 70zM954 1655q4 41 37 69.5t74 28.5t67.5 -28.5t22.5 -69.5q-2 -39 -36 -69t-74.5 -30t-67.5 29t-23 70zM1307 1485h157l-655 -807l-70 -678h-131l70 678l-481 807
h157l404 -684z" />
    <glyph glyph-name="Zacute" unicode="&#x179;" horiz-adv-x="1247" 
d="M559 1556l12 115l447 148l-17 -156zM1147 0h-1106l1063 1362h-862l14 123h1106l-1065 -1362h862z" />
    <glyph glyph-name="zacute" unicode="&#x17a;" horiz-adv-x="948" 
d="M379 1274l12 115l445 147l-17 -156zM293 123h602l-12 -123h-842l721 901h-602l12 123h842z" />
    <glyph glyph-name="Zdotaccent" unicode="&#x17b;" horiz-adv-x="1247" 
d="M920 1659q-6 -49 -47.5 -86t-90.5 -37q-47 0 -79.5 37t-26.5 86q4 49 45 86t88 37q49 0 82 -37t29 -86zM1147 0h-1106l1063 1362h-862l14 123h1106l-1065 -1362h862z" />
    <glyph glyph-name="zdotaccent" unicode="&#x17c;" horiz-adv-x="948" 
d="M739 1378q-4 -49 -45 -86t-90 -37q-47 0 -79.5 37t-28.5 86q6 49 47 86t88 37q49 0 81.5 -37t26.5 -86zM293 123h602l-12 -123h-842l721 901h-602l12 123h842z" />
    <glyph glyph-name="Zcaron" unicode="&#x17d;" horiz-adv-x="1247" 
d="M1085 1815l-239 -244h-119l-184 244h110l146 -136l174 136h112zM1147 0h-1106l1063 1362h-862l14 123h1106l-1065 -1362h862z" />
    <glyph glyph-name="zcaron" unicode="&#x17e;" horiz-adv-x="948" 
d="M901 1485l-239 -244h-119l-185 244h111l145 -135l174 135h113zM293 123h602l-12 -123h-842l721 901h-602l12 123h842z" />
    <glyph glyph-name="florin" unicode="&#x192;" horiz-adv-x="835" 
d="M14 -391h54q49 0 88 27.5t53 76.5l291 1188h-168l30 123h166l70 287q27 104 112 164.5t191 60.5h53l-26 -121h-54q-49 0 -89 -28.5t-54 -75.5l-69 -287h167l-30 -123h-166l-291 -1188q-27 -104 -114 -164.5t-191 -60.5h-49z" />
    <glyph glyph-name="circumflex" unicode="&#x2c6;" horiz-adv-x="993" 
d="M711 1485l186 -244h-113l-145 135l-174 -135h-111l238 244h119z" />
    <glyph glyph-name="caron" unicode="&#x2c7;" horiz-adv-x="993" 
d="M924 1485l-240 -244h-119l-184 244h111l145 -135l174 135h113z" />
    <glyph glyph-name="breve" unicode="&#x2d8;" horiz-adv-x="929" 
d="M731 1493h129q-25 -86 -97.5 -141.5t-160.5 -55.5q-90 0 -151.5 55.5t-69.5 141.5h135q4 -37 33 -61.5t65 -24.5q39 0 72 24.5t45 61.5z" />
    <glyph glyph-name="dotaccent" unicode="&#x2d9;" horiz-adv-x="694" 
d="M612 1378q-4 -49 -45 -86t-90 -37q-47 0 -79.5 37t-28.5 86q6 49 47 86t88 37q49 0 81.5 -37t26.5 -86z" />
    <glyph glyph-name="ring" unicode="&#x2da;" horiz-adv-x="897" 
d="M721 1325q4 55 -31 90t-90 35q-57 0 -99 -35t-46 -90q-6 -55 28.5 -94t90 -39t98.5 39t49 94zM809 1323q-8 -90 -82 -153.5t-164 -63.5t-149.5 63.5t-51.5 153.5q8 88 82 150.5t164 62.5t149.5 -62.5t51.5 -150.5z" />
    <glyph glyph-name="ogonek" unicode="&#x2db;" horiz-adv-x="632" 
d="M250 -129q-6 -53 26.5 -90t85.5 -37q55 0 99 37l-8 -92q-61 -49 -140 -49q-86 0 -139 60t-43 146t74.5 146.5t150.5 60.5q16 0 39 -6l-4 -47q-53 0 -94 -38t-47 -91z" />
    <glyph glyph-name="tilde" unicode="&#x2dc;" horiz-adv-x="1056" 
d="M565 1501q47 0 83 -21.5t54.5 -48t41 -48t42.5 -21.5q35 0 60.5 21.5t27.5 58.5h107q-8 -80 -65.5 -133.5t-133.5 -53.5q-45 0 -80.5 21.5t-56 48.5t-43 48.5t-43.5 21.5q-35 0 -59.5 -23.5t-26.5 -60.5h-111q8 82 66.5 136t136.5 54z" />
    <glyph glyph-name="hungarumlaut" unicode="&#x2dd;" horiz-adv-x="933" 
d="M481 1241h-127l178 244h127zM686 1241h-127l178 244h127z" />
    <glyph glyph-name="pi" unicode="&#x3c0;" horiz-adv-x="1202" 
d="M819 176l76 727h-377l-94 -903h-131l94 903h-244l13 121h1104l-13 -121h-221l-76 -727q-4 -33 21.5 -61.5t68.5 -28.5q29 0 56 12l-15 -121q-37 -8 -53 -8q-100 0 -159.5 55.5t-49.5 151.5z" />
    <glyph glyph-name="endash" unicode="&#x2013;" horiz-adv-x="1130" 
d="M182 573h885l-12 -122h-885z" />
    <glyph glyph-name="emdash" unicode="&#x2014;" horiz-adv-x="1583" 
d="M182 573h1338l-13 -122h-1337z" />
    <glyph glyph-name="quoteleft" unicode="&#x2018;" horiz-adv-x="499" 
d="M465 1442h-23q-76 0 -82 -76l-8 -78q14 6 33 6q41 0 68.5 -29.5t23.5 -70.5t-37.5 -70.5t-74.5 -29.5t-69 29.5t-24 70.5l19 172q14 135 160 135h22z" />
    <glyph glyph-name="quoteright" unicode="&#x2019;" horiz-adv-x="499" 
d="M305 1153h23q76 0 84 76l8 78q-18 -6 -35 -7q-41 0 -68.5 30t-23.5 71t39 70.5t76 29.5t67.5 -29.5t22.5 -70.5l-17 -172q-16 -135 -159 -135h-23z" />
    <glyph glyph-name="quotesinglbase" unicode="&#x201a;" horiz-adv-x="499" 
d="M188 -162q76 0 84 76l9 78q-14 -6 -33 -6q-41 0 -68.5 29.5t-23.5 70.5t37.5 70.5t74.5 29.5t69 -29.5t23 -70.5l-18 -172q-14 -135 -160 -135h-22l6 59h22z" />
    <glyph glyph-name="quotedblleft" unicode="&#x201c;" horiz-adv-x="745" 
d="M465 1442h-23q-76 0 -82 -76l-8 -78q14 6 33 6q41 0 68.5 -29.5t23.5 -70.5t-37.5 -70.5t-74.5 -29.5t-69 29.5t-24 70.5l19 172q14 135 160 135h22zM711 1442h-23q-76 0 -82 -76l-8 -78q14 6 33 6q41 0 68.5 -29.5t23.5 -70.5t-38 -70.5t-75 -29.5t-68.5 29.5
t-23.5 70.5l19 172q14 135 159 135h23z" />
    <glyph glyph-name="quotedblright" unicode="&#x201d;" horiz-adv-x="745" 
d="M551 1153h22q76 0 84 76l9 78q-18 -6 -35 -7q-41 0 -68.5 30t-23.5 71t38.5 70.5t75.5 29.5t68 -29.5t22 -70.5l-16 -172q-16 -135 -160 -135h-22zM305 1153h23q76 0 84 76l8 78q-18 -6 -35 -7q-41 0 -68.5 30t-23.5 71t39 70.5t76 29.5t67.5 -29.5t22.5 -70.5l-17 -172
q-16 -135 -159 -135h-23z" />
    <glyph glyph-name="quotedblbase" unicode="&#x201e;" horiz-adv-x="745" 
d="M188 -162q76 0 84 76l9 78q-14 -6 -33 -6q-41 0 -68.5 29.5t-23.5 70.5t37.5 70.5t74.5 29.5t69 -29.5t23 -70.5l-18 -172q-14 -135 -160 -135h-22l6 59h22zM434 -162q76 0 84 76l8 78q-14 -6 -32 -6q-41 0 -69 29.5t-23.5 70.5t38 70.5t74.5 29.5t68.5 -29.5t23.5 -70.5
l-18 -172q-14 -135 -160 -135h-22l6 59h22z" />
    <glyph glyph-name="dagger" unicode="&#x2020;" horiz-adv-x="1089" 
d="M254 1024h348l49 461h99l-50 -461h349l-9 -88h-348l-129 -1210h-98l129 1210h-348z" />
    <glyph glyph-name="daggerdbl" unicode="&#x2021;" horiz-adv-x="1089" 
d="M254 1024h348l49 461h99l-50 -461h349l-9 -88h-348l-69 -662h348l-10 -88h-349l-49 -460h-98l49 460h-348l10 88h348l70 662h-348z" />
    <glyph glyph-name="bullet" unicode="&#x2022;" horiz-adv-x="868" 
d="M246 512q0 76 55 130t133 54t133.5 -54t55.5 -130t-55.5 -130t-133.5 -54t-133 54t-55 130z" />
    <glyph glyph-name="ellipsis" unicode="&#x2026;" horiz-adv-x="1597" 
d="M156 86q4 41 37.5 70.5t74.5 29.5t69 -29.5t23.5 -70.5t-38 -70.5t-74.5 -29.5t-68.5 29.5t-23.5 70.5zM704.5 86q4.5 41 38 70.5t74.5 29.5t68.5 -29.5t23.5 -70.5t-37.5 -70.5t-74.5 -29.5t-69 29.5t-23.5 70.5zM1253 86q4 41 38 70.5t75 29.5t68.5 -29.5t23.5 -70.5
t-38 -70.5t-74.5 -29.5t-68.5 29.5t-24 70.5z" />
    <glyph glyph-name="perthousand" unicode="&#x2030;" horiz-adv-x="2584" 
d="M217 1133q14 156 139 267t285 111q94 0 171 -40.5t122 -112.5q76 -102 199 -103q129 0 225 103l119 155l84 -67l-1147 -1481l-86 68l872 1122q-41 -10 -80 -10q-63 0 -133 35v-47q-16 -158 -141 -268.5t-285 -110.5t-260 110.5t-84 268.5zM907.5 348
q16.5 158 141.5 268.5t284.5 110.5t260 -110.5t83.5 -268.5q-14 -156 -139 -267.5t-284.5 -111.5t-261 110.5t-85 268.5zM1751 348q16 158 141 268.5t285 110.5t260 -110.5t84 -268.5q-14 -156 -139 -267.5t-285 -111.5t-261 110.5t-85 268.5zM336 1133q-12 -111 57.5 -189
t180 -78t196.5 78t98 189q10 111 -59.5 188.5t-180 77.5t-196.5 -77.5t-96 -188.5zM1026 348q-10 -111 59.5 -188.5t180 -77.5t196.5 78t97 188q12 111 -57.5 188.5t-180.5 77.5t-197 -77.5t-98 -188.5zM1870 348q-10 -111 59.5 -188.5t180 -77.5t196.5 78t96 188
q12 111 -57.5 188.5t-180 77.5t-196.5 -77.5t-98 -188.5z" />
    <glyph glyph-name="guilsinglleft" unicode="&#x2039;" horiz-adv-x="526" 
d="M516 842l-18 -170l-176 -160l141 -164l-17 -170l-294 334z" />
    <glyph glyph-name="guilsinglright" unicode="&#x203a;" horiz-adv-x="526" 
d="M168 672l18 170l295 -330l-364 -334l16 170l178 164z" />
    <glyph glyph-name="fraction" unicode="&#x2044;" horiz-adv-x="997" 
d="M997 1489l-792 -1520l-51 27l790 1520z" />
    <glyph glyph-name="Euro" unicode="&#x20ac;" horiz-adv-x="1488" 
d="M1212 825h-743q-6 -27 -10 -82q-6 -39 -6 -75h704l-49 -123h-655q18 -209 124.5 -332t305.5 -123q272 0 422 229l112 -63q-193 -287 -547 -287q-262 0 -401 156t-154 420h-178l15 123h165q0 37 7 75q4 55 10 82h-166l12 121h180q70 260 240 415t432 155q354 0 488 -287
l-127 -64q-100 229 -373 230q-199 0 -331 -121t-193 -328h766z" />
    <glyph glyph-name="trademark" unicode="&#x2122;" horiz-adv-x="772" 
d="M674 1485v-307h-29v241l-110 -241h-27l-113 241v-241h-28v307h28l125 -271l125 271h29zM340 1458h-107v-280h-28v280h-107v27h242v-27z" />
    <glyph glyph-name="Omega" unicode="&#x2126;" horiz-adv-x="1765" 
d="M1743 739q-37 -369 -422 -616h317l-12 -123h-508l12 127q195 72 326 238.5t152 373.5q29 272 -141.5 464t-438.5 192t-479 -191.5t-240 -464.5q-20 -207 76 -373.5t274 -238.5l-12 -127h-508l13 123h317q-332 250 -295 616q35 322 288 549.5t578.5 227.5t531.5 -227.5
t171 -549.5z" />
    <glyph glyph-name="partialdiff" unicode="&#x2202;" horiz-adv-x="1333" 
d="M1303 653q-33 -311 -205 -497.5t-441 -186.5q-240 0 -386 155t-119 400q25 231 192.5 392t403.5 161q147 0 259.5 -68.5t174.5 -181.5q4 102 -13.5 193.5t-62.5 180.5t-139.5 141.5t-227.5 52.5q-158 0 -301 -82l15 131q57 29 144 50.5t155 21.5q641 -1 551 -863z
M1145 524q20 180 -90.5 306t-292.5 126q-178 0 -316.5 -125.5t-158.5 -306.5q-18 -180 93.5 -307t289.5 -127q182 0 319.5 126t155.5 308z" />
    <glyph glyph-name="Delta" unicode="&#x2206;" horiz-adv-x="1177" 
d="M49 0l633 1485h125q59 -281 172 -795t149 -690h-1079zM227 123h750l-254 1163z" />
    <glyph glyph-name="product" unicode="&#x220f;" horiz-adv-x="1222" 
d="M1174 1362h-242v-1362h-131v1362h-377v-1362h-131v1362h-244v123h1125v-123z" />
    <glyph glyph-name="summation" unicode="&#x2211;" horiz-adv-x="1138" 
d="M244 123h829v-123h-1007v127l620 616l-620 615v127h1007v-123h-829l622 -619z" />
    <glyph glyph-name="minus" unicode="&#x2212;" horiz-adv-x="1269" 
d="M123 573h1024v-122h-1024v122z" />
    <glyph glyph-name="radical" unicode="&#x221a;" horiz-adv-x="1067" 
d="M326 518l159 -399l383 1366h125l-413 -1485h-177l-151 385l-62 -139h-116l114 272h138z" />
    <glyph glyph-name="infinity" unicode="&#x221e;" horiz-adv-x="1486" 
d="M743 594q57 90 137.5 149.5t168.5 59.5q129 0 222 -84t93 -207q0 -125 -93 -209t-222 -84q-172 0 -306 203q-133 -203 -305 -203q-129 0 -222 84t-93 209q0 123 93 207t222 84q88 0 168 -59.5t137 -149.5zM1249 512q0 80 -60.5 132t-141.5 52q-113 0 -226 -188
q113 -182 226 -182q82 0 142 53t60 133zM238 512q0 -80 60 -133t142 -53q113 0 226 182q-113 188 -226 188q-82 0 -142 -52t-60 -132z" />
    <glyph glyph-name="integral" unicode="&#x222b;" horiz-adv-x="569" 
d="M49 -389h55q49 0 82 28.5t33 75.5v1594q0 104 70.5 165.5t175.5 61.5h55v-123h-53q-49 0 -83 -28.5t-34 -75.5v-1594q0 -104 -71.5 -165.5t-176.5 -61.5h-53v123z" />
    <glyph glyph-name="approxequal" unicode="&#x2248;" horiz-adv-x="1269" 
d="M123 299v123q14 6 39.5 15t96.5 26.5t133.5 23t132 -9t112.5 -57.5q41 -41 109.5 -56.5t135 -7t128 22.5t100.5 29l37 14v-123q-14 -6 -40 -15.5t-95.5 -27.5t-131 -23.5t-131 10t-110.5 58.5q-43 41 -111.5 56.5t-136 7t-129 -22.5t-100.5 -29zM123 602v123
q14 6 39.5 15.5t96.5 26.5t133.5 22.5t132 -9t112.5 -57.5q41 -43 109.5 -58.5t135 -7t128 22.5t100.5 29l37 16v-123q-14 -6 -40 -15t-95.5 -26.5t-131 -23t-131 10t-110.5 56.5q-43 43 -111.5 58.5t-136 7.5t-129 -22.5t-100.5 -29.5z" />
    <glyph glyph-name="notequal" unicode="&#x2260;" horiz-adv-x="1269" 
d="M123 422h334l180 180h-514v123h637l178 178l84 -86l-92 -92h217v-123h-340l-180 -180h520v-123h-643l-170 -172l-86 86l86 86h-211v123z" />
    <glyph glyph-name="lessequal" unicode="&#x2264;" horiz-adv-x="800" 
d="M702 303l-604 299v121l604 301v-133l-456 -227l456 -228v-133zM98 123h604v-123h-604v123z" />
    <glyph glyph-name="greaterequal" unicode="&#x2265;" horiz-adv-x="800" 
d="M702 602l-604 -299v133l457 228l-457 227v133l604 -301v-121zM98 123h604v-123h-604v123z" />
    <glyph glyph-name="lozenge" unicode="&#x25ca;" horiz-adv-x="1130" 
d="M502 1485h127l403 -744l-403 -741h-127l-404 741zM565 1374l-332 -633l332 -630l332 630z" />
    <glyph glyph-name="uniF8FF" unicode="&#xf8ff;" horiz-adv-x="1024" 
 />
    <glyph glyph-name="uniFB00" unicode="&#xfb00;" horiz-adv-x="1226" 
d="M887 903h-492l-94 -903h-131l94 903h-121l13 121h120l33 309q12 111 90 172.5t187 61.5q80 0 137 -45l-74 -99q-33 23 -76 23q-53 0 -90 -27.5t-43 -85.5l-32 -309h491l33 309q12 111 90 172.5t186 61.5q80 0 138 -45l-74 -99q-33 23 -76 23q-53 0 -90 -27.5t-43 -85.5
l-33 -309h213l-12 -121h-213l-94 -903h-131z" />
    <glyph glyph-name="uniFB01" unicode="&#xfb01;" horiz-adv-x="1071" 
d="M264 903h-121l13 121h120l33 309q12 111 90 172.5t187 61.5q80 0 137 -45l-74 -99q-33 23 -76 23q-53 0 -90 -27.5t-43 -85.5l-32 -309h622l-106 -1024h-131l94 903h-492l-94 -903h-131zM922 1462q2 37 31.5 63.5t66.5 26.5t61.5 -26.5t20.5 -63.5q-4 -39 -34 -64.5
t-66.5 -25.5t-60 25.5t-19.5 64.5z" />
    <glyph glyph-name="uniFB02" unicode="&#xfb02;" horiz-adv-x="1071" 
d="M569 1415q-119 0 -133 -112l-28 -279h213l-13 -121h-213l-94 -903h-131l94 903h-121l13 121h120l29 279q12 111 90 172t187 61h290q94 0 147.5 -49t43.5 -144l-139 -1343h-131l139 1343q6 43 -13.5 57.5t-58.5 14.5h-291z" />
    <glyph glyph-name="uniFB03" unicode="&#xfb03;" horiz-adv-x="1693" 
d="M887 903h-492l-94 -903h-131l94 903h-121l13 121h120l33 309q12 111 90 172.5t187 61.5q80 0 137 -45l-74 -99q-33 23 -76 23q-53 0 -90 -27.5t-43 -85.5l-32 -309h491l33 309q12 111 90 172.5t186 61.5q80 0 138 -45l-74 -99q-33 23 -76 23q-53 0 -90 -27.5t-43 -85.5
l-33 -309h623l-107 -1024h-131l94 903h-491l-94 -903h-131zM1544 1462q2 37 32 63.5t66.5 26.5t61.5 -26.5t20 -63.5q-4 -39 -33.5 -64.5t-66.5 -25.5t-60.5 25.5t-19.5 64.5z" />
    <glyph glyph-name="uniFB04" unicode="&#xfb04;" horiz-adv-x="1693" 
d="M1192 1415q-119 0 -133 -112l-29 -279h213l-12 -121h-213l-94 -903h-131l94 903h-492l-94 -903h-131l94 903h-121l13 121h120l33 309q12 111 90 172.5t187 61.5q80 0 137 -45l-74 -99q-33 23 -76 23q-53 0 -90 -27.5t-43 -85.5l-32 -309h491l29 279q12 111 90 172t186 61
h291q94 0 147.5 -49t43.5 -144l-140 -1343h-131l139 1343q6 43 -13 57.5t-58 14.5h-291z" />
    <glyph glyph-name="uniFB05" unicode="&#xfb05;" horiz-adv-x="1196" 
d="M156 1024h120l35 334h131l-34 -334h491l35 334h131l-35 -334h213l-12 -121h-213l-74 -704q-12 -109 98 -109q39 0 80 27l33 -111q-63 -37 -125 -37q-104 0 -166.5 58.5t-52.5 167.5l76 708h-492l-73 -704q-12 -109 98 -109q39 0 80 27l32 -111q-63 -37 -124 -37
q-104 0 -167 58.5t-53 167.5l76 708h-121z" />
    <glyph glyph-name="uniFB06" unicode="&#xfb06;" horiz-adv-x="1196" 
d="M264 903h-121l13 121h120l33 309q12 111 90 172.5t187 61.5q80 0 137 -45l-74 -99q-33 23 -76 23q-53 0 -90 -27.5t-43 -85.5l-32 -309h491l35 334h131l-35 -334h213l-12 -121h-213l-74 -704q-12 -109 98 -109q39 0 80 27l33 -111q-63 -37 -125 -37q-104 0 -166.5 58.5
t-52.5 167.5l76 708h-492l-94 -903h-131z" />
    <glyph glyph-name="uniFB07" unicode="&#xfb07;" horiz-adv-x="1284" 
d="M1186 514q0 -225 -160 -385t-385 -160t-384 160t-159 385q0 223 159 382t384 159t385 -159t160 -382zM1120 514q0 197 -140 337t-339 140t-338 -140t-139 -337q0 -199 139 -340t338 -141t339 141t140 340zM946 618q0 -106 -74.5 -179.5t-181.5 -73.5h-170v-215h-86v727
h256q106 0 181 -75t75 -184zM858 618q0 72 -49 123.5t-119 51.5h-170v-344h170q70 0 119 49.5t49 119.5z" />
    <glyph glyph-name="zero.oldstyle" horiz-adv-x="1224" 
d="M1163 602l-18 -182q-20 -199 -175 -325t-360 -126q-209 0 -337 126t-107 325l18 182q20 201 176 327t365 126q205 0 331.5 -126t106.5 -327zM1010 420l18 182q16 152 -75 242t-242 90q-154 0 -264.5 -90t-127.5 -242l-18 -182q-14 -150 77 -240t245 -90q152 0 262.5 90
t124.5 240z" />
    <glyph glyph-name="one.oldstyle" horiz-adv-x="638" 
d="M186 731l15 139l403 217l-112 -1087h-132l91 870z" />
    <glyph glyph-name="two.oldstyle" horiz-adv-x="1077" 
d="M807 367l-338 -238v-6h489l-12 -123h-846l643 455q51 37 76 57t57.5 70.5t38.5 109.5q12 119 -65.5 180.5t-214.5 61.5q-135 0 -231.5 -77t-110.5 -195h-127q18 172 157.5 282.5t325.5 110.5q193 0 306.5 -96.5t95.5 -266.5q-6 -59 -32 -110.5t-69 -95.5t-69.5 -65
t-73.5 -54z" />
    <glyph glyph-name="three.oldstyle" horiz-adv-x="1204" 
d="M279 381l581 520h-575l12 123h883l-568 -512l37 2q217 0 348 -144.5t109 -357.5q-23 -207 -187.5 -355.5t-375.5 -148.5q-209 0 -341 146.5t-112 353.5h131q-12 -154 85 -266.5t249 -112.5q156 0 277.5 114t138.5 269q16 160 -79 270.5t-255 110.5q-156 0 -275 -112z" />
    <glyph glyph-name="four.oldstyle" horiz-adv-x="1200" 
d="M995 1087l-100 -964h240l-13 -123h-239l-49 -461h-136l50 461h-728zM823 717l-534 -594h473z" />
    <glyph glyph-name="five.oldstyle" horiz-adv-x="1206" 
d="M352 262l-131 23l209 739h637l-12 -123h-525l-131 -461q125 72 252 72q221 0 350 -141.5t107 -360.5q-23 -213 -184.5 -357.5t-378.5 -144.5q-211 0 -343 145.5t-112 352.5h131q-16 -154 83 -265.5t253 -111.5q156 0 277.5 113t138.5 268q16 160 -79 270.5t-255 110.5
q-158 0 -287 -129z" />
    <glyph glyph-name="six.oldstyle" horiz-adv-x="1218" 
d="M698.5 852q-155.5 0 -278.5 -112.5t-137 -268.5q-16 -156 82 -268.5t253.5 -112.5t277.5 112.5t138 268.5q16 158 -82 269.5t-253.5 111.5zM711 973q211 0 346 -147.5t112 -354.5q-23 -209 -187.5 -355.5t-375.5 -146.5q-219 0 -350 144.5t-109 357.5q14 150 117 285
l565 729h156l-420 -535q83 23 146 23z" />
    <glyph glyph-name="seven.oldstyle" horiz-adv-x="1107" 
d="M160 901l12 123h989l-768 -1485h-141l709 1362h-801z" />
    <glyph glyph-name="eight.oldstyle" horiz-adv-x="1187" 
d="M338 1155q14 150 136 254t277.5 104t255 -104t85.5 -254q-18 -174 -201 -287q123 -57 190.5 -169.5t53.5 -252.5q-20 -197 -180 -337t-365 -140q-203 0 -335 140.5t-112 336.5q14 139 107.5 252t228.5 170q-72 47 -110.5 123t-30.5 164zM279 446q-16 -150 78 -253
t245.5 -103t267 103.5t129.5 252.5q16 152 -77 253.5t-244 101.5q-154 0 -268.5 -101.5t-130.5 -253.5zM473 1155q-10 -98 53.5 -166.5t164 -68.5t178 67.5t88 167.5t-53 169t-164 69t-178.5 -69t-88 -169z" />
    <glyph glyph-name="nine.oldstyle" horiz-adv-x="1218" 
d="M624.5 172q155.5 0 278.5 111.5t139 269.5q16 156 -83 268.5t-254.5 112.5t-276.5 -112.5t-137 -268.5q-16 -158 81 -269.5t252.5 -111.5zM612 51q-211 0 -345 147.5t-111.5 354.5t187.5 354.5t376 147.5q219 0 350 -143.5t109 -358.5q-14 -145 -119 -285l-563 -729h-156
l418 535q-83 -23 -146 -23z" />
    <glyph glyph-name="dollar.oldstyle" horiz-adv-x="1026" 
d="M547 -197h-131l18 170q-201 16 -328 107l76 106q152 -96 330 -96q135 0 217 53.5t92 143.5t-55.5 134t-164.5 58.5t-197.5 32.5t-161 84t-49.5 186q12 115 113.5 186.5t242.5 84.5l14 139h131l-14 -137q176 -14 313 -99l-69 -104q-139 84 -322 84q-117 0 -192.5 -42
t-81.5 -108q-8 -74 38 -114.5t120.5 -51t161.5 -28t160 -40t117 -92t31 -179.5q-14 -129 -119.5 -211t-271.5 -97z" />
    <glyph glyph-name="sterling.oldstyle" horiz-adv-x="1124" 
d="M158 571h139l10 99q16 164 148.5 274.5t304.5 110.5q186 0 323 -174l-108 -74q-96 127 -230 127q-119 0 -206.5 -76t-100.5 -188l-10 -99h455l-13 -122h-454l-21 -179q0 -23 -6 -41q6 0 19.5 2t21.5 2q74 0 126 -35.5t96 -71.5t98 -36q72 0 131 55l80 70l77 -86l-80 -72
q-94 -88 -221 -88q-63 0 -111 22.5t-72 48.5t-60.5 48.5t-81.5 22.5q-72 0 -138 -62l-92 -80l-80 88l97 82q59 59 65 133l21 177h-140z" />
    <glyph glyph-name="yen.oldstyle" horiz-adv-x="1015" 
d="M918 1024h155l-258 -332h154l-13 -123h-231l-90 -118h309l-14 -123h-324l-33 -328h-131l33 328h-323l14 123h309l-65 118h-232l12 123h154l-188 332h155l256 -455z" />
    <glyph glyph-name="Euro.oldstyle" horiz-adv-x="1146" 
d="M139 561l13 121h100q66 166 200 269.5t302 103.5q131 0 229 -65.5t150 -176.5l-117 -65q-35 86 -106.5 136t-170.5 50q-115 0 -206 -68.5t-142 -183.5h518l-45 -121h-508q-2 -10 -4 -27.5t-2 -19.5q-4 -59 -4 -68h473l-45 -120h-414q31 -109 107 -172.5t184 -63.5
q199 0 316 189l102 -66q-74 -113 -186.5 -178.5t-243.5 -65.5q-164 0 -274.5 98.5t-143.5 258.5h-106l12 120h84q0 8 4 68q0 2 2 19.5t4 27.5h-82z" />
    <glyph glyph-name="numbersign.oldstyle" horiz-adv-x="1253" 
d="M94 406l12 110h381l162 508h119l-162 -508h248l162 508h119l-162 -508h280l-12 -110h-305l-80 -254h358l-10 -111h-383l-159 -504h-119l159 504h-247l-160 -504h-119l160 504h-279l11 111h303l80 254h-357zM569 406l-80 -254h248l80 254h-248z" />
    <glyph glyph-name="percent.oldstyle" horiz-adv-x="1253" 
d="M180 784q10 113 102.5 192t209.5 79q92 0 160.5 -52.5t86.5 -136.5q27 -80 131 -80q66 0 111 45l100 91l49 -54l-854 -772l-49 54l627 567q-63 2 -115 35q-23 -100 -109.5 -169t-195.5 -69q-117 0 -191.5 78.5t-62.5 191.5zM614.5 241.5q12.5 112.5 103.5 191.5t207.5 79
t191.5 -79t62.5 -191.5t-103.5 -192.5t-207.5 -80t-191.5 80t-62.5 192.5zM284.5 784.5q-8.5 -71.5 38 -122t121.5 -50.5q74 0 130.5 50.5t64.5 122t-38 121.5t-120 50q-76 0 -132 -50t-64.5 -121.5zM721 241.5q-8 -71.5 38 -121.5t119.5 -50t130 50t64.5 121.5t-38 121
t-119.5 49.5t-130 -49.5t-64.5 -121z" />
    <glyph glyph-name="perthousand.oldstyle" horiz-adv-x="1865" 
d="M1226.5 241.5q12.5 112.5 103.5 191.5t208 79t191.5 -79t62.5 -191.5t-103.5 -192.5t-208 -80t-191.5 80t-62.5 192.5zM1333 241.5q-8 -71.5 38 -121.5t120 -50t130 50t64.5 121.5t-37.5 121t-120 49.5t-130.5 -49.5t-64.5 -121zM180 784q10 113 102.5 192t209.5 79
q92 0 160.5 -52.5t86.5 -136.5q27 -80 131 -80q66 0 111 45l100 91l49 -54l-854 -772l-49 54l627 567q-63 2 -115 35q-23 -100 -109.5 -169t-195.5 -69q-117 0 -191.5 78.5t-62.5 191.5zM614.5 241.5q12.5 112.5 103.5 191.5t207.5 79t191.5 -79t62.5 -191.5t-103.5 -192.5
t-207.5 -80t-191.5 80t-62.5 192.5zM284.5 784.5q-8.5 -71.5 38 -122t121.5 -50.5q74 0 130.5 50.5t64.5 122t-38 121.5t-120 50q-76 0 -132 -50t-64.5 -121.5zM721 241.5q-8 -71.5 38 -121.5t119.5 -50t130 50t64.5 121.5t-38 121t-119.5 49.5t-130 -49.5t-64.5 -121z" />
    <glyph glyph-name="florin.oldstyle" horiz-adv-x="745" 
d="M14 -391h47q49 0 88 28.5t54 75.5l203 834h-162l30 123h162l31 131q25 104 110 163.5t189 59.5h45l-29 -119h-43q-49 0 -89 -28.5t-52 -75.5l-31 -131h158l-29 -123h-159l-203 -834q-27 -104 -112 -164.5t-189 -60.5h-45z" />
    <glyph glyph-name="currency.oldstyle" horiz-adv-x="1243" 
d="M1145 950l-141 -141q113 -145 112 -295q0 -154 -112 -299l141 -141l-86 -84l-141 141q-127 -100 -295 -100t-297 100l-142 -141l-86 84l142 141q-111 143 -111 299q0 152 111 295l-142 141l86 84l142 -141q133 102 297 102q166 0 295 -102l141 141zM264 514
q0 -152 104.5 -258t254 -106t254 106t104.5 258q0 150 -104.5 256.5t-254 106.5t-254 -106.5t-104.5 -256.5z" />
    <glyph glyph-name="cent.oldstyle" horiz-adv-x="956" 
d="M274.5 395q-14.5 -127 66.5 -217t208 -90q141 0 244 107l88 -78q-115 -119 -279 -144l-16 -168h-131l16 168q-158 23 -253 143t-79 279q16 158 138 278t282 142l16 141h132l-17 -141q154 -20 250 -143l-104 -80q-82 109 -224 108q-127 0 -225 -89t-112.5 -216z" />
    <glyph glyph-name="one.tnum" 
d="M408 1174l14 141l432 231l-149 -1423h372l-12 -123h-881l13 123h372l127 1204z" />
    <glyph glyph-name="two.tnum" 
d="M1016 653l-582 -530h629l-12 -123h-928l813 748q119 106 135 264q16 154 -82 267.5t-252 113.5q-152 0 -269.5 -115t-135.5 -274h-131q25 213 184.5 361t364.5 148q211 0 345 -147t111 -354q-22 -212 -190 -359z" />
    <glyph glyph-name="three.tnum" 
d="M330 842l579 520h-575l14 123h883l-569 -512l38 2q217 0 348.5 -143.5t108.5 -358.5q-23 -207 -187.5 -355.5t-375.5 -148.5q-209 0 -342 146.5t-111 353.5h131q-14 -154 84.5 -266.5t249.5 -112.5q154 0 277 113.5t139 269.5q16 160 -80 270.5t-256 110.5
q-154 0 -272 -113z" />
    <glyph glyph-name="four.tnum" 
d="M907 1145l-561 -682h490zM1083 1546l-114 -1083h239l-12 -123h-240l-34 -340h-136l35 340h-727z" />
    <glyph glyph-name="five.tnum" 
d="M410 723l-131 22l208 740h637l-14 -123h-524l-129 -461q125 72 250 72q221 0 351 -141.5t107 -360.5q-23 -213 -184.5 -357.5t-378.5 -144.5q-211 0 -344 145.5t-113 352.5h131q-14 -154 85.5 -265.5t252.5 -111.5q156 0 278 112.5t138 268.5q16 160 -80 270.5
t-256 110.5q-155 0 -284 -129z" />
    <glyph glyph-name="six.tnum" 
d="M704.5 852q-155.5 0 -278.5 -112.5t-137 -268.5q-16 -156 82 -268.5t253.5 -112.5t277.5 112.5t138 268.5q16 158 -82 269.5t-253.5 111.5zM717 973q211 0 346 -147.5t113 -354.5q-23 -209 -188 -355.5t-376 -146.5q-219 0 -350 144.5t-108 357.5q14 150 116 285l566 729
h155l-420 -535q83 23 146 23z" />
    <glyph glyph-name="seven.tnum" 
d="M260 1362l14 123h990l-768 -1485h-142l707 1362h-801z" />
    <glyph glyph-name="eight.tnum" 
d="M358 1155q14 150 136 254t278 104t255 -104t85 -254q-18 -174 -201 -287q123 -57 190.5 -169.5t53.5 -252.5q-20 -197 -180 -337t-365 -140q-203 0 -335 140.5t-111 336.5q14 139 107.5 252t228.5 170q-72 47 -111 123t-31 164zM299 446q-16 -150 78 -253t245.5 -103
t267.5 103.5t130 252.5q16 152 -77 253.5t-245 101.5q-154 0 -268.5 -101.5t-130.5 -253.5zM494 1155q-10 -98 53 -166.5t163.5 -68.5t178.5 67.5t88 167.5t-53.5 169t-164 69t-178 -69t-87.5 -169z" />
    <glyph glyph-name="nine.tnum" 
d="M678 633q156 0 278.5 111.5t139.5 269.5q16 156 -83.5 268.5t-255 112.5t-276.5 -113t-137 -268q-16 -158 81 -269.5t253 -111.5zM666 512q-211 0 -345.5 147.5t-112 354.5t186.5 354.5t375 147.5q219 0 351 -144.5t110 -357.5q-18 -150 -119 -285l-563 -729h-156
l418 535q-82 -23 -145 -23z" />
    <glyph glyph-name="cent.tnum" 
d="M719 -195h-131l16 170q-205 23 -327.5 176.5t-100.5 362.5q20 205 176 358.5t365 176.5l16 141h131l-16 -139q184 -20 303 -156l-94 -84q-111 123 -287 123q-174 0 -308 -123t-153 -297q-18 -176 90.5 -300t282.5 -124q176 0 311 125l78 -86q-147 -131 -336 -156z" />
    <glyph glyph-name="currency.tnum" 
d="M1137 950l-142 -141q113 -145 113 -295q0 -154 -113 -299l142 -141l-86 -84l-142 141q-127 -100 -295 -100t-297 100l-141 -141l-86 84l141 141q-111 143 -110 299q0 152 110 295l-141 141l86 84l141 -141q133 102 297 102q166 0 295 -102l142 141zM256 514
q0 -152 104.5 -258t254 -106t254 106t104.5 258q0 150 -104.5 256.5t-254 106.5t-254 -106.5t-104.5 -256.5z" />
    <glyph glyph-name="dollar.tnum" 
d="M526 -221l21 188q-260 18 -426 162l82 102q180 -145 422 -145q154 0 270.5 86t130.5 227q10 100 -30 165t-110.5 95.5t-158.5 51t-175 44t-157.5 60.5t-109.5 115t-27 192q16 154 144 264.5t307 131.5l16 145h131l-16 -143q211 -18 372 -131l-82 -101q-162 113 -368 113
q-143 0 -249.5 -79t-119.5 -200q-10 -90 31 -147t112.5 -85t159.5 -46.5t175 -44t157 -66.5t108 -125t25 -209q-18 -176 -155.5 -293.5t-327.5 -136.5l-21 -190h-131z" />
    <glyph glyph-name="sterling.tnum" 
d="M1210 1378l-90 -82q-98 98 -243 99q-158 0 -267.5 -98.5t-126.5 -249.5l-24 -242h514l-15 -123h-514l-38 -381q-4 -29 -11 -53q41 4 56 4q63 0 115 -25.5t82 -55.5t73 -55.5t90 -25.5q86 0 154 64l84 73l77 -86l-82 -73q-109 -98 -245 -99q-68 0 -121 24.5t-83 55.5
t-73 55.5t-90 24.5q-76 0 -164 -72l-96 -84l-76 88l99 86q66 59 75 156l39 379h-153l14 123h154l24 242q20 201 179 335t362 134q196 -1 321 -138z" />
    <glyph glyph-name="Euro.tnum" 
d="M1036 825h-678q-6 -27 -10 -82q-6 -39 -6 -75h639l-49 -123h-590q18 -211 114.5 -333t282.5 -122q240 0 389 229l113 -63q-193 -287 -514 -287q-250 0 -379 156t-143 420h-137l14 123h125q0 37 6 75q4 55 10 82h-125l13 121h139q70 262 229.5 416t409.5 154
q322 0 454 -287l-126 -64q-100 229 -340 230q-358 0 -492 -449h700z" />
    <glyph glyph-name="florin.tnum" 
d="M193 -391h53q49 0 88 27.5t53 76.5l291 1188h-168l31 123h166l69 287q27 104 112 164.5t191 60.5h54l-27 -121h-53q-49 0 -89 -28.5t-55 -75.5l-69 -287h168l-31 -123h-166l-291 -1188q-27 -104 -114 -164.5t-191 -60.5h-51z" />
    <glyph glyph-name="yen.tnum" 
d="M1202 885h-295l-112 -148h391l-12 -123h-431l-63 -614h-131l63 614h-430l13 123h391l-80 148h-295l12 123h215l-260 477h158l362 -684l508 684h158l-365 -477h215z" />
    <glyph glyph-name="percent.tnum" 
d="M168 784q10 113 102 192t209 79q92 0 161 -52.5t87 -136.5q27 -80 131 -80q66 0 111 45l100 91l49 -54l-854 -772l-49 54l627 567q-63 2 -115 35q-23 -100 -110 -169t-195 -69q-117 0 -191.5 78.5t-62.5 191.5zM602 241.5q12 112.5 103.5 191.5t208 79t191.5 -79
t62.5 -191.5t-103.5 -192.5t-208 -80t-191.5 80t-62.5 192.5zM272.5 784.5q-8.5 -71.5 37.5 -122t122 -50.5q74 0 130 50.5t64.5 122t-37.5 121.5t-120 50q-76 0 -132 -50t-64.5 -121.5zM708.5 241.5q-8.5 -71.5 38 -121.5t120 -50t130 50t64.5 121.5t-38 121t-120 49.5
t-130 -49.5t-64.5 -121z" />
    <glyph glyph-name="numbersign.tnum" 
d="M131 868l12 111h381l162 508h119l-162 -508h248l162 508h118l-161 -508h280l-12 -111h-305l-80 -254h358l-12 -110h-383l-158 -504h-118l157 504h-248l-157 -504h-119l158 504h-279l12 110h304l79 254h-356zM606 868l-80 -254h248l80 254h-248z" />
    <glyph glyph-name="perthousand.tnum" 
d="M1169.5 241.5q12.5 112.5 103.5 191.5t207.5 79t191.5 -79t62.5 -191.5t-103.5 -192.5t-207.5 -80t-191.5 80t-62.5 192.5zM1276 241.5q-8 -71.5 38 -121.5t119.5 -50t130 50t64.5 121.5t-38 121t-119.5 49.5t-130 -49.5t-64.5 -121zM123 784q10 113 102 192t209 79
q92 0 161 -52.5t87 -136.5q27 -80 131 -80q66 0 111 45l100 91l49 -54l-854 -772l-49 54l627 567q-63 2 -115 35q-23 -100 -110 -169t-195 -69q-117 0 -191.5 78.5t-62.5 191.5zM557 241.5q12 112.5 103.5 191.5t208 79t191.5 -79t62.5 -191.5t-103.5 -192.5t-208 -80
t-191.5 80t-62.5 192.5zM227.5 784.5q-8.5 -71.5 37.5 -122t122 -50.5q74 0 130 50.5t64.5 122t-37.5 121.5t-120 50q-76 0 -132 -50t-64.5 -121.5zM663.5 241.5q-8.5 -71.5 38 -121.5t120 -50t130 50t64.5 121.5t-38 121t-120 49.5t-130 -49.5t-64.5 -121z" />
    <glyph glyph-name="zero.tnum" 
d="M1225 1040l-64 -600q-20 -201 -180 -336t-369 -135q-211 0 -343 135.5t-111 335.5l63 600q20 203 181 338t372 135q209 0 340 -135t111 -338zM1026 440l64 600q16 154 -79.5 253.5t-248.5 99.5q-156 0 -272.5 -99.5t-133.5 -253.5l-63 -600q-14 -152 81 -251t251 -99
q154 0 270.5 99t130.5 251z" />
    <glyph glyph-name="zero.tnum.oldstyle" 
d="M1165 602l-18 -182q-20 -199 -175 -325t-360 -126q-209 0 -337 126t-107 325l18 182q20 201 176 327t365 126q205 0 331.5 -126t106.5 -327zM1012 420l18 182q16 152 -75 242t-242 90q-154 0 -264.5 -90t-126.5 -242l-19 -182q-14 -150 77 -240t245 -90q152 0 262.5 90
t124.5 240z" />
    <glyph glyph-name="one.tnum.oldstyle" 
d="M193 0l12 123h375l77 745l-295 -155l15 139l434 233l-100 -962h374l-12 -123h-880z" />
    <glyph glyph-name="two.tnum.oldstyle" 
d="M877 367l-338 -238v-6h489l-12 -123h-846l643 455q51 37 75.5 57t57.5 70.5t39 109.5q12 119 -65.5 180.5t-214.5 61.5q-135 0 -231.5 -77t-111.5 -195h-126q18 172 157 282.5t326 110.5q193 0 306.5 -96.5t94.5 -266.5q-6 -59 -31.5 -110.5t-68.5 -95.5t-69.5 -65
t-73.5 -54z" />
    <glyph glyph-name="three.tnum.oldstyle" 
d="M281 381l581 520h-575l12 123h883l-568 -512l37 2q217 0 348 -144.5t109 -357.5q-23 -207 -187.5 -355.5t-375.5 -148.5q-209 0 -341 146.5t-112 353.5h131q-12 -154 85.5 -266.5t248.5 -112.5q156 0 277.5 114t138.5 269q16 160 -79 270.5t-255 110.5q-156 0 -274 -112z
" />
    <glyph glyph-name="four.tnum.oldstyle" 
d="M1034 1087l-100 -964h240l-13 -123h-239l-50 -461h-135l49 461h-727zM862 717l-534 -594h473z" />
    <glyph glyph-name="five.tnum.oldstyle" 
d="M360 262l-131 23l209 739h637l-12 -123h-524l-131 -461q125 72 251 72q221 0 350.5 -141.5t106.5 -360.5q-23 -213 -184.5 -357.5t-378.5 -144.5q-211 0 -343 145.5t-112 352.5h131q-16 -154 83.5 -265.5t252.5 -111.5q156 0 278 113t138 268q16 160 -79 270.5
t-255 110.5q-158 0 -287 -129z" />
    <glyph glyph-name="six.tnum.oldstyle" 
d="M702.5 852q-155.5 0 -278.5 -112.5t-137 -268.5q-16 -156 82 -268.5t253.5 -112.5t277.5 112.5t138 268.5q16 158 -82 269.5t-253.5 111.5zM715 973q211 0 346 -147.5t113 -354.5q-23 -209 -188 -355.5t-376 -146.5q-219 0 -350 144.5t-108 357.5q14 150 116 285l566 729
h155l-420 -535q83 23 146 23z" />
    <glyph glyph-name="seven.tnum.oldstyle" 
d="M213 901l12 123h989l-768 -1485h-141l709 1362h-801z" />
    <glyph glyph-name="eight.tnum.oldstyle" 
d="M358 1155q14 150 136 254t278 104t255 -104t85 -254q-18 -174 -201 -287q123 -57 190.5 -169.5t53.5 -252.5q-20 -197 -180 -337t-365 -140q-203 0 -335 140.5t-111 336.5q14 139 107.5 252t228.5 170q-72 47 -111 123t-31 164zM299 446q-16 -150 78 -253t245.5 -103
t267.5 103.5t130 252.5q16 152 -77 253.5t-245 101.5q-154 0 -268.5 -101.5t-130.5 -253.5zM494 1155q-10 -98 53 -166.5t163.5 -68.5t178.5 67.5t88 167.5t-53.5 169t-164 69t-178 -69t-87.5 -169z" />
    <glyph glyph-name="nine.tnum.oldstyle" 
d="M628.5 172q155.5 0 278.5 111.5t140 269.5q16 156 -83.5 268.5t-255 112.5t-276.5 -112.5t-137 -268.5q-16 -158 81 -269.5t252.5 -111.5zM616 51q-211 0 -345 147.5t-111.5 354.5t187.5 354.5t376 147.5q219 0 350 -143.5t109 -358.5q-14 -145 -119 -285l-563 -729h-156
l418 535q-83 -23 -146 -23z" />
    <glyph glyph-name="dollar.tnum.oldstyle" 
d="M647 -197h-131l19 170q-201 16 -328 107l76 106q152 -96 329 -96q135 0 217 53.5t92.5 143.5t-55 134t-165 58.5t-197.5 32.5t-160.5 84t-50.5 186q12 115 113.5 186.5t242.5 84.5l15 139h131l-15 -137q176 -14 314 -99l-70 -104q-139 84 -322 84q-117 0 -192.5 -42
t-81.5 -108q-8 -74 38 -114.5t121 -51t162 -28t159.5 -40t116.5 -92t32 -179.5q-14 -129 -120 -211t-271 -97z" />
    <glyph glyph-name="sterling.tnum.oldstyle" 
d="M203 571h139l10 99q16 164 148.5 274.5t304.5 110.5q186 0 323 -174l-108 -74q-96 127 -229 127q-119 0 -207 -76t-101 -188l-10 -99h455l-13 -122h-454l-21 -179q0 -23 -6 -41q6 0 19.5 2t21.5 2q74 0 126 -35.5t96 -71.5t98 -36q72 0 131 55l80 70l77 -86l-79 -72
q-94 -88 -222 -88q-63 0 -111 22.5t-72 48.5t-60.5 48.5t-81.5 22.5q-72 0 -138 -62l-92 -80l-80 88l97 82q59 59 65 133l21 177h-140z" />
    <glyph glyph-name="yen.tnum.oldstyle" 
d="M1024 1024h156l-258 -332h153l-12 -123h-232l-90 -118h310l-15 -123h-323l-33 -328h-131l33 328h-324l14 123h310l-66 118h-231l12 123h154l-189 332h156l256 -455z" />
    <glyph glyph-name="Euro.tnum.oldstyle" 
d="M162 561l12 121h100q66 166 200 269.5t302 103.5q131 0 229.5 -65.5t149.5 -176.5l-117 -65q-35 86 -106.5 136t-169.5 50q-115 0 -206 -68.5t-142 -183.5h518l-45 -121h-508q-2 -10 -4 -27.5t-2 -19.5q-4 -59 -4 -68h473l-45 -120h-414q31 -109 106.5 -172.5
t184.5 -63.5q199 0 315 189l103 -66q-74 -113 -186.5 -178.5t-243.5 -65.5q-164 0 -275 98.5t-143 258.5h-107l13 120h83q0 8 5 68q0 2 2 19.5t4 27.5h-82z" />
    <glyph glyph-name="numbersign.tnum.oldstyle" 
d="M82 406l12 110h381l162 508h119l-162 -508h248l162 508h118l-161 -508h280l-12 -110h-305l-80 -254h358l-10 -111h-383l-160 -504h-119l160 504h-248l-159 -504h-119l160 504h-279l10 111h303l80 254h-356zM557 406l-80 -254h248l80 254h-248z" />
    <glyph glyph-name="percent.tnum.oldstyle" 
d="M168 784q10 113 102 192t209 79q92 0 161 -52.5t87 -136.5q27 -80 131 -80q66 0 111 45l100 91l49 -54l-854 -772l-49 54l627 567q-63 2 -115 35q-23 -100 -110 -169t-195 -69q-117 0 -191.5 78.5t-62.5 191.5zM602 241.5q12 112.5 103.5 191.5t208 79t191.5 -79
t62.5 -191.5t-103.5 -192.5t-208 -80t-191.5 80t-62.5 192.5zM272.5 784.5q-8.5 -71.5 37.5 -122t122 -50.5q74 0 130 50.5t64.5 122t-37.5 121.5t-120 50q-76 0 -132 -50t-64.5 -121.5zM708.5 241.5q-8.5 -71.5 38 -121.5t120 -50t130 50t64.5 121.5t-38 121t-120 49.5
t-130 -49.5t-64.5 -121z" />
    <glyph glyph-name="cent.tnum.oldstyle" 
d="M364.5 395q-14.5 -127 66.5 -217t208 -90q141 0 244 107l88 -78q-115 -119 -279 -144l-16 -168h-131l16 168q-158 23 -253 143t-79 279q16 158 138 278t282 142l17 141h131l-17 -141q154 -20 250 -143l-104 -80q-82 109 -224 108q-127 0 -225 -89t-112.5 -216z" />
    <glyph glyph-name="currency.tnum.oldstyle" 
d="M1137 950l-142 -141q113 -145 113 -295q0 -154 -113 -299l142 -141l-86 -84l-142 141q-127 -100 -295 -100t-297 100l-141 -141l-86 84l141 141q-111 143 -110 299q0 152 110 295l-141 141l86 84l141 -141q133 102 297 102q166 0 295 -102l142 141zM256 514
q0 -152 104.5 -258t254 -106t254 106t104.5 258q0 150 -104.5 256.5t-254 106.5t-254 -106.5t-104.5 -256.5z" />
    <glyph glyph-name="florin.tnum.oldstyle" 
d="M240 -391h47q49 0 88 28.5t53 75.5l203 834h-162l31 123h162l30 131q25 104 110 163.5t189 59.5h45l-28 -119h-43q-49 0 -89 -28.5t-53 -75.5l-30 -131h157l-28 -123h-160l-203 -834q-27 -104 -112 -164.5t-189 -60.5h-47z" />
    <glyph glyph-name="period.oldstyle" horiz-adv-x="499" 
d="M156 86q4 41 37.5 70.5t74.5 29.5t69 -29.5t23.5 -70.5t-38 -70.5t-74.5 -29.5t-68.5 29.5t-23.5 70.5z" />
    <glyph glyph-name="period.tnum" 
d="M520 86q4 41 38 70.5t75 29.5t68.5 -29.5t23.5 -70.5t-38 -70.5t-75 -29.5t-68.5 29.5t-23.5 70.5z" />
    <glyph glyph-name="period.tnum.oldstyle" 
d="M520 86q4 41 38 70.5t75 29.5t68.5 -29.5t23.5 -70.5t-38 -70.5t-75 -29.5t-68.5 29.5t-23.5 70.5z" />
    <glyph glyph-name="space.oldstyle" horiz-adv-x="552" 
 />
    <glyph glyph-name="space.tnum" 
 />
    <glyph glyph-name="space.tnum.oldstyle" 
 />
    </font>
</defs>
</svg>
